G75*
%MOIN*%
%OFA0B0*%
%FSLAX25Y25*%
%IPPOS*%
%LPD*%
%AMOC8*
5,1,8,0,0,1.08239X$1,22.5*
%
%ADD10C,0.00000*%
%ADD11C,0.06400*%
%ADD12OC8,0.06400*%
D10*
X0001000Y0001000D02*
X0001000Y0315961D01*
X0394701Y0315961D01*
X0394701Y0001000D01*
X0001000Y0001000D01*
D11*
X0026000Y0298000D02*
X0026000Y0304000D01*
X0036000Y0304000D02*
X0036000Y0298000D01*
X0046000Y0298000D02*
X0046000Y0304000D01*
X0056000Y0304000D02*
X0056000Y0298000D01*
X0066000Y0298000D02*
X0066000Y0304000D01*
X0101000Y0304000D02*
X0101000Y0298000D01*
X0111000Y0298000D02*
X0111000Y0304000D01*
X0121000Y0304000D02*
X0121000Y0298000D01*
X0131000Y0298000D02*
X0131000Y0304000D01*
X0141000Y0304000D02*
X0141000Y0298000D01*
X0176000Y0298000D02*
X0176000Y0304000D01*
X0186000Y0304000D02*
X0186000Y0298000D01*
X0196000Y0298000D02*
X0196000Y0304000D01*
X0206000Y0304000D02*
X0206000Y0298000D01*
X0216000Y0298000D02*
X0216000Y0304000D01*
X0251000Y0304000D02*
X0251000Y0298000D01*
X0261000Y0298000D02*
X0261000Y0304000D01*
X0271000Y0304000D02*
X0271000Y0298000D01*
X0281000Y0298000D02*
X0281000Y0304000D01*
X0291000Y0304000D02*
X0291000Y0298000D01*
X0326000Y0298000D02*
X0326000Y0304000D01*
X0336000Y0304000D02*
X0336000Y0298000D01*
X0346000Y0298000D02*
X0346000Y0304000D01*
X0356000Y0304000D02*
X0356000Y0298000D01*
X0366000Y0298000D02*
X0366000Y0304000D01*
D12*
X0276000Y0016000D03*
X0266000Y0016000D03*
X0256000Y0016000D03*
X0246000Y0016000D03*
X0236000Y0016000D03*
X0226000Y0016000D03*
X0216000Y0016000D03*
X0176000Y0016000D03*
X0156000Y0016000D03*
X0116000Y0016000D03*
X0106000Y0016000D03*
X0096000Y0016000D03*
M02*
