%
M48
M72
T01C0.02362
T02C0.04000
%
T01
X106000Y101000
X141000Y101000
X161000Y96000
X161000Y106000
X186000Y106000
X196000Y121000
X211000Y136000
X171000Y151000
X171000Y171000
X161000Y181000
X151000Y181000
X146000Y181000
X141000Y181000
X136000Y181000
X131000Y181000
X126000Y181000
X121000Y181000
X116000Y181000
X111000Y181000
X106000Y181000
X86000Y166000
X66000Y196000
X78500Y243500
X91000Y246000
X106000Y246000
X121000Y246000
X128500Y246000
X131000Y201000
X161000Y191000
X196000Y171000
X146000Y151000
X121000Y146000
X121000Y136000
X86000Y136000
X201000Y91000
X228500Y88500
X246000Y76000
X233500Y63500
X226000Y61000
X226000Y56000
X231000Y41000
X253500Y58500
X276000Y81000
X291000Y61000
X366000Y121000
X381000Y141000
X386000Y151000
X341000Y161000
X321000Y156000
X321000Y146000
X301000Y166000
X301000Y181000
X296000Y181000
X291000Y181000
X286000Y181000
X281000Y181000
X276000Y181000
X271000Y181000
X266000Y181000
X261000Y181000
X256000Y221000
X241000Y221000
X261000Y246000
X271000Y246000
X286000Y246000
X301000Y246000
X316000Y246000
X331000Y246000
X346000Y246000
X361000Y246000
X378500Y248500
X371000Y291000
X356000Y291000
X341000Y291000
X326000Y291000
X311000Y291000
X296000Y291000
X281000Y291000
X266000Y291000
X251000Y291000
X236000Y291000
X221000Y291000
X206000Y291000
X191000Y291000
X176000Y291000
X161000Y291000
X146000Y291000
X131000Y291000
X116000Y291000
X101000Y291000
X86000Y291000
X71000Y291000
X56000Y291000
X41000Y291000
X26000Y291000
X11000Y291000
X21000Y246000
X36000Y246000
X51000Y246000
X61000Y246000
X311000Y191000
X311000Y181000
X341000Y206000
T02
X26000Y301000
X36000Y301000
X46000Y301000
X56000Y301000
X66000Y301000
X101000Y301000
X111000Y301000
X121000Y301000
X131000Y301000
X141000Y301000
X176000Y301000
X186000Y301000
X196000Y301000
X206000Y301000
X216000Y301000
X251000Y301000
X261000Y301000
X271000Y301000
X281000Y301000
X291000Y301000
X326000Y301000
X336000Y301000
X346000Y301000
X356000Y301000
X366000Y301000
X276000Y16000
X266000Y16000
X256000Y16000
X246000Y16000
X236000Y16000
X226000Y16000
X216000Y16000
X176000Y16000
X156000Y16000
X116000Y16000
X106000Y16000
X96000Y16000
M30
