G75*
%MOIN*%
%OFA0B0*%
%FSLAX25Y25*%
%IPPOS*%
%LPD*%
%AMOC8*
5,1,8,0,0,1.08239X$1,22.5*
%
%ADD10C,0.00000*%
%ADD11C,0.06000*%
%ADD12OC8,0.06000*%
%ADD13C,0.03562*%
%ADD14C,0.02000*%
%ADD15C,0.01600*%
D10*
X0001000Y0001000D02*
X0001000Y0315961D01*
X0394701Y0315961D01*
X0394701Y0001000D01*
X0001000Y0001000D01*
D11*
X0026000Y0298000D02*
X0026000Y0304000D01*
X0036000Y0304000D02*
X0036000Y0298000D01*
X0046000Y0298000D02*
X0046000Y0304000D01*
X0056000Y0304000D02*
X0056000Y0298000D01*
X0066000Y0298000D02*
X0066000Y0304000D01*
X0101000Y0304000D02*
X0101000Y0298000D01*
X0111000Y0298000D02*
X0111000Y0304000D01*
X0121000Y0304000D02*
X0121000Y0298000D01*
X0131000Y0298000D02*
X0131000Y0304000D01*
X0141000Y0304000D02*
X0141000Y0298000D01*
X0176000Y0298000D02*
X0176000Y0304000D01*
X0186000Y0304000D02*
X0186000Y0298000D01*
X0196000Y0298000D02*
X0196000Y0304000D01*
X0206000Y0304000D02*
X0206000Y0298000D01*
X0216000Y0298000D02*
X0216000Y0304000D01*
X0251000Y0304000D02*
X0251000Y0298000D01*
X0261000Y0298000D02*
X0261000Y0304000D01*
X0271000Y0304000D02*
X0271000Y0298000D01*
X0281000Y0298000D02*
X0281000Y0304000D01*
X0291000Y0304000D02*
X0291000Y0298000D01*
X0326000Y0298000D02*
X0326000Y0304000D01*
X0336000Y0304000D02*
X0336000Y0298000D01*
X0346000Y0298000D02*
X0346000Y0304000D01*
X0356000Y0304000D02*
X0356000Y0298000D01*
X0366000Y0298000D02*
X0366000Y0304000D01*
D12*
X0276000Y0016000D03*
X0266000Y0016000D03*
X0256000Y0016000D03*
X0246000Y0016000D03*
X0236000Y0016000D03*
X0226000Y0016000D03*
X0216000Y0016000D03*
X0176000Y0016000D03*
X0156000Y0016000D03*
X0116000Y0016000D03*
X0106000Y0016000D03*
X0096000Y0016000D03*
D13*
X0161000Y0096000D03*
X0161000Y0106000D03*
X0141000Y0101000D03*
X0106000Y0101000D03*
X0121000Y0136000D03*
X0121000Y0146000D03*
X0146000Y0151000D03*
X0171000Y0151000D03*
X0171000Y0171000D03*
X0161000Y0181000D03*
X0151000Y0181000D03*
X0146000Y0181000D03*
X0141000Y0181000D03*
X0136000Y0181000D03*
X0131000Y0181000D03*
X0126000Y0181000D03*
X0121000Y0181000D03*
X0116000Y0181000D03*
X0111000Y0181000D03*
X0106000Y0181000D03*
X0086000Y0166000D03*
X0066000Y0196000D03*
X0078500Y0243500D03*
X0091000Y0246000D03*
X0106000Y0246000D03*
X0121000Y0246000D03*
X0128500Y0246000D03*
X0131000Y0201000D03*
X0161000Y0191000D03*
X0196000Y0171000D03*
X0211000Y0136000D03*
X0196000Y0121000D03*
X0186000Y0106000D03*
X0201000Y0091000D03*
X0228500Y0088500D03*
X0246000Y0076000D03*
X0233500Y0063500D03*
X0226000Y0061000D03*
X0226000Y0056000D03*
X0231000Y0041000D03*
X0253500Y0058500D03*
X0276000Y0081000D03*
X0291000Y0061000D03*
X0366000Y0121000D03*
X0381000Y0141000D03*
X0386000Y0151000D03*
X0341000Y0161000D03*
X0321000Y0156000D03*
X0321000Y0146000D03*
X0301000Y0166000D03*
X0301000Y0181000D03*
X0296000Y0181000D03*
X0291000Y0181000D03*
X0286000Y0181000D03*
X0281000Y0181000D03*
X0276000Y0181000D03*
X0271000Y0181000D03*
X0266000Y0181000D03*
X0261000Y0181000D03*
X0256000Y0221000D03*
X0241000Y0221000D03*
X0261000Y0246000D03*
X0271000Y0246000D03*
X0286000Y0246000D03*
X0301000Y0246000D03*
X0316000Y0246000D03*
X0331000Y0246000D03*
X0346000Y0246000D03*
X0361000Y0246000D03*
X0378500Y0248500D03*
X0371000Y0291000D03*
X0356000Y0291000D03*
X0341000Y0291000D03*
X0326000Y0291000D03*
X0311000Y0291000D03*
X0296000Y0291000D03*
X0281000Y0291000D03*
X0266000Y0291000D03*
X0251000Y0291000D03*
X0236000Y0291000D03*
X0221000Y0291000D03*
X0206000Y0291000D03*
X0191000Y0291000D03*
X0176000Y0291000D03*
X0161000Y0291000D03*
X0146000Y0291000D03*
X0131000Y0291000D03*
X0116000Y0291000D03*
X0101000Y0291000D03*
X0086000Y0291000D03*
X0071000Y0291000D03*
X0056000Y0291000D03*
X0041000Y0291000D03*
X0026000Y0291000D03*
X0011000Y0291000D03*
X0021000Y0246000D03*
X0036000Y0246000D03*
X0051000Y0246000D03*
X0061000Y0246000D03*
X0086000Y0136000D03*
X0311000Y0181000D03*
X0311000Y0191000D03*
X0341000Y0206000D03*
D14*
X0341000Y0161000D01*
X0331000Y0146000D02*
X0336000Y0141000D01*
X0381000Y0141000D01*
X0386000Y0151000D02*
X0171000Y0151000D01*
X0166000Y0166000D02*
X0141000Y0166000D01*
X0256000Y0051000D01*
X0256000Y0016000D01*
X0253500Y0058500D02*
X0261000Y0061000D01*
X0291000Y0061000D01*
X0276000Y0081000D02*
X0251000Y0081000D01*
X0246000Y0076000D01*
X0233500Y0063500D02*
X0228500Y0068500D01*
X0228500Y0088500D02*
X0261000Y0121000D01*
X0366000Y0121000D01*
X0331000Y0146000D02*
X0321000Y0146000D01*
X0321000Y0156000D02*
X0311000Y0166000D01*
X0301000Y0166000D01*
X0306000Y0171000D02*
X0311000Y0176000D01*
X0311000Y0181000D01*
X0301000Y0181000D02*
X0311000Y0191000D01*
X0301000Y0206000D02*
X0276000Y0181000D01*
X0271000Y0181000D02*
X0286000Y0196000D01*
X0286000Y0246000D01*
X0271000Y0246000D02*
X0271000Y0186000D01*
X0266000Y0181000D01*
X0261000Y0181000D02*
X0261000Y0246000D01*
X0256000Y0246000D02*
X0256000Y0221000D01*
X0241000Y0221000D02*
X0216000Y0246000D01*
X0128500Y0246000D01*
X0121000Y0246000D02*
X0121000Y0206000D01*
X0146000Y0181000D01*
X0141000Y0181000D02*
X0106000Y0216000D01*
X0106000Y0246000D01*
X0091000Y0246000D02*
X0091000Y0226000D01*
X0136000Y0181000D01*
X0131000Y0181000D02*
X0078500Y0233500D01*
X0078500Y0243500D01*
X0061000Y0241000D02*
X0121000Y0181000D01*
X0116000Y0181000D02*
X0061000Y0236000D01*
X0051000Y0236000D01*
X0041000Y0246000D01*
X0036000Y0246000D01*
X0041000Y0241000D02*
X0051000Y0231000D01*
X0061000Y0231000D01*
X0111000Y0181000D01*
X0106000Y0181000D02*
X0091000Y0181000D01*
X0081000Y0171000D01*
X0081000Y0161000D01*
X0136000Y0161000D01*
X0146000Y0151000D01*
X0141000Y0166000D02*
X0086000Y0166000D01*
X0066000Y0166000D02*
X0066000Y0196000D01*
X0066000Y0166000D02*
X0086000Y0146000D01*
X0121000Y0146000D01*
X0121000Y0136000D02*
X0086000Y0136000D01*
X0106000Y0101000D02*
X0141000Y0101000D01*
X0196000Y0121000D02*
X0211000Y0136000D01*
X0196000Y0171000D02*
X0206000Y0181000D01*
X0161000Y0181000D01*
X0151000Y0181000D02*
X0141000Y0191000D01*
X0161000Y0191000D01*
X0141000Y0191000D02*
X0131000Y0201000D01*
X0126000Y0181000D02*
X0061000Y0246000D01*
X0061000Y0241000D02*
X0051000Y0241000D01*
X0051000Y0246000D01*
X0041000Y0241000D02*
X0026000Y0241000D01*
X0021000Y0246000D01*
X0026000Y0291000D02*
X0011000Y0291000D01*
X0006000Y0291000D02*
X0006000Y0016000D01*
X0016000Y0006000D01*
X0111000Y0006000D01*
X0116000Y0011000D01*
X0116000Y0016000D01*
X0166000Y0166000D02*
X0171000Y0171000D01*
X0206000Y0181000D02*
X0251000Y0181000D01*
X0261000Y0171000D01*
X0306000Y0171000D01*
X0296000Y0181000D02*
X0361000Y0246000D01*
X0371000Y0251000D02*
X0261000Y0251000D01*
X0256000Y0246000D01*
X0301000Y0246000D02*
X0301000Y0206000D01*
X0316000Y0216000D02*
X0281000Y0181000D01*
X0286000Y0181000D02*
X0331000Y0226000D01*
X0331000Y0246000D01*
X0346000Y0246000D02*
X0346000Y0236000D01*
X0291000Y0181000D01*
X0316000Y0216000D02*
X0316000Y0246000D01*
X0311000Y0291000D02*
X0296000Y0291000D01*
X0281000Y0291000D01*
X0266000Y0291000D01*
X0251000Y0291000D01*
X0236000Y0291000D01*
X0221000Y0291000D01*
X0206000Y0291000D01*
X0191000Y0291000D01*
X0176000Y0291000D01*
X0161000Y0291000D01*
X0146000Y0291000D01*
X0131000Y0291000D01*
X0116000Y0291000D01*
X0101000Y0291000D01*
X0006000Y0291000D01*
X0026000Y0291000D02*
X0041000Y0291000D01*
X0056000Y0291000D01*
X0071000Y0291000D01*
X0086000Y0291000D01*
X0101000Y0291000D01*
X0311000Y0291000D02*
X0326000Y0291000D01*
X0341000Y0291000D01*
X0356000Y0291000D01*
X0371000Y0291000D01*
X0371000Y0251000D02*
X0373500Y0248500D01*
X0378500Y0248500D01*
D15*
X0201000Y0096000D02*
X0161000Y0096000D01*
X0136000Y0096000D01*
X0106000Y0066000D01*
X0106000Y0016000D01*
X0116000Y0016000D02*
X0156000Y0056000D01*
X0226000Y0056000D01*
X0226000Y0061000D02*
X0226000Y0066000D01*
X0201000Y0091000D01*
X0201000Y0096000D02*
X0228500Y0068500D01*
X0233500Y0063500D02*
X0246000Y0051000D01*
X0246000Y0046000D01*
X0241000Y0041000D01*
X0231000Y0041000D01*
X0186000Y0106000D02*
X0161000Y0106000D01*
M02*
