G75*
%MOIN*%
%OFA0B0*%
%FSLAX25Y25*%
%IPPOS*%
%LPD*%
%AMOC8*
5,1,8,0,0,1.08239X$1,22.5*
%
%ADD10C,0.00000*%
%ADD11R,0.04252X0.04134*%
%ADD12R,0.03937X0.04331*%
%ADD13R,0.02559X0.06693*%
%ADD14R,0.02600X0.08000*%
%ADD15R,0.07098X0.06299*%
%ADD16R,0.04331X0.03937*%
%ADD17R,0.08661X0.02362*%
%ADD18R,0.02362X0.01575*%
D10*
X0001000Y0001000D02*
X0001000Y0315961D01*
X0394701Y0315961D01*
X0394701Y0001000D01*
X0001000Y0001000D01*
D11*
X0231000Y0047555D03*
X0231000Y0054445D03*
X0226000Y0192555D03*
X0226000Y0199445D03*
X0231000Y0267555D03*
X0231000Y0274445D03*
X0216000Y0274445D03*
X0216000Y0267555D03*
X0201000Y0267555D03*
X0201000Y0274445D03*
X0186000Y0274445D03*
X0186000Y0267555D03*
X0171000Y0267555D03*
X0171000Y0274445D03*
X0156000Y0274445D03*
X0156000Y0267555D03*
X0141000Y0267555D03*
X0141000Y0274445D03*
X0126000Y0274445D03*
X0126000Y0267555D03*
X0111000Y0267555D03*
X0111000Y0274445D03*
X0096000Y0274445D03*
X0096000Y0267555D03*
X0081000Y0267555D03*
X0081000Y0274445D03*
X0066000Y0274445D03*
X0066000Y0267555D03*
X0051000Y0267555D03*
X0051000Y0274445D03*
X0036000Y0274445D03*
X0036000Y0267555D03*
X0021000Y0267555D03*
X0021000Y0274445D03*
X0076000Y0199445D03*
X0076000Y0192555D03*
X0246000Y0267555D03*
X0246000Y0274445D03*
X0261000Y0274445D03*
X0261000Y0267555D03*
X0276000Y0267555D03*
X0276000Y0274445D03*
X0291000Y0274445D03*
X0291000Y0267555D03*
X0306000Y0267555D03*
X0306000Y0274445D03*
X0321000Y0274445D03*
X0321000Y0267555D03*
X0336000Y0267555D03*
X0336000Y0274445D03*
X0351000Y0274445D03*
X0351000Y0267555D03*
X0366000Y0267555D03*
X0366000Y0274445D03*
X0381000Y0274445D03*
X0381000Y0267555D03*
D12*
X0379346Y0256000D03*
X0372654Y0256000D03*
X0364346Y0256000D03*
X0357654Y0256000D03*
X0349346Y0256000D03*
X0342654Y0256000D03*
X0334346Y0256000D03*
X0327654Y0256000D03*
X0319346Y0256000D03*
X0312654Y0256000D03*
X0304346Y0256000D03*
X0297654Y0256000D03*
X0289346Y0256000D03*
X0282654Y0256000D03*
X0274346Y0256000D03*
X0267654Y0256000D03*
X0259346Y0256000D03*
X0252654Y0256000D03*
X0244346Y0256000D03*
X0237654Y0256000D03*
X0229346Y0256000D03*
X0222654Y0256000D03*
X0214346Y0256000D03*
X0207654Y0256000D03*
X0199346Y0256000D03*
X0192654Y0256000D03*
X0184346Y0256000D03*
X0177654Y0256000D03*
X0169346Y0256000D03*
X0162654Y0256000D03*
X0154346Y0256000D03*
X0147654Y0256000D03*
X0139346Y0256000D03*
X0132654Y0256000D03*
X0124346Y0256000D03*
X0117654Y0256000D03*
X0109346Y0256000D03*
X0102654Y0256000D03*
X0094346Y0256000D03*
X0087654Y0256000D03*
X0079346Y0256000D03*
X0072654Y0256000D03*
X0064346Y0256000D03*
X0057654Y0256000D03*
X0049346Y0256000D03*
X0042654Y0256000D03*
X0034346Y0256000D03*
X0027654Y0256000D03*
X0019346Y0256000D03*
X0012654Y0256000D03*
X0012654Y0286000D03*
X0019346Y0286000D03*
X0027654Y0286000D03*
X0034346Y0286000D03*
X0042654Y0286000D03*
X0049346Y0286000D03*
X0057654Y0286000D03*
X0064346Y0286000D03*
X0072654Y0286000D03*
X0079346Y0286000D03*
X0087654Y0286000D03*
X0094346Y0286000D03*
X0102654Y0286000D03*
X0109346Y0286000D03*
X0117654Y0286000D03*
X0124346Y0286000D03*
X0132654Y0286000D03*
X0139346Y0286000D03*
X0147654Y0286000D03*
X0154346Y0286000D03*
X0162654Y0286000D03*
X0169346Y0286000D03*
X0177654Y0286000D03*
X0184346Y0286000D03*
X0192654Y0286000D03*
X0199346Y0286000D03*
X0207654Y0286000D03*
X0214346Y0286000D03*
X0222654Y0286000D03*
X0229346Y0286000D03*
X0237654Y0286000D03*
X0244346Y0286000D03*
X0252654Y0286000D03*
X0259346Y0286000D03*
X0267654Y0286000D03*
X0274346Y0286000D03*
X0282654Y0286000D03*
X0289346Y0286000D03*
X0297654Y0286000D03*
X0304346Y0286000D03*
X0312654Y0286000D03*
X0319346Y0286000D03*
X0327654Y0286000D03*
X0334346Y0286000D03*
X0342654Y0286000D03*
X0349346Y0286000D03*
X0357654Y0286000D03*
X0364346Y0286000D03*
X0372654Y0286000D03*
X0379346Y0286000D03*
D13*
X0306000Y0209819D03*
X0301000Y0209819D03*
X0296000Y0209819D03*
X0291000Y0209819D03*
X0286000Y0209819D03*
X0281000Y0209819D03*
X0276000Y0209819D03*
X0271000Y0209819D03*
X0266000Y0209819D03*
X0261000Y0209819D03*
X0256000Y0209819D03*
X0251000Y0209819D03*
X0246000Y0209819D03*
X0241000Y0209819D03*
X0241000Y0172181D03*
X0246000Y0172181D03*
X0251000Y0172181D03*
X0256000Y0172181D03*
X0261000Y0172181D03*
X0266000Y0172181D03*
X0271000Y0172181D03*
X0276000Y0172181D03*
X0281000Y0172181D03*
X0286000Y0172181D03*
X0291000Y0172181D03*
X0296000Y0172181D03*
X0301000Y0172181D03*
X0306000Y0172181D03*
X0156000Y0172181D03*
X0151000Y0172181D03*
X0146000Y0172181D03*
X0141000Y0172181D03*
X0136000Y0172181D03*
X0131000Y0172181D03*
X0126000Y0172181D03*
X0121000Y0172181D03*
X0116000Y0172181D03*
X0111000Y0172181D03*
X0106000Y0172181D03*
X0101000Y0172181D03*
X0096000Y0172181D03*
X0091000Y0172181D03*
X0091000Y0209819D03*
X0096000Y0209819D03*
X0101000Y0209819D03*
X0106000Y0209819D03*
X0111000Y0209819D03*
X0116000Y0209819D03*
X0121000Y0209819D03*
X0126000Y0209819D03*
X0131000Y0209819D03*
X0136000Y0209819D03*
X0141000Y0209819D03*
X0146000Y0209819D03*
X0151000Y0209819D03*
X0156000Y0209819D03*
D14*
X0351000Y0208100D03*
X0356000Y0208100D03*
X0361000Y0208100D03*
X0366000Y0208100D03*
X0371000Y0208100D03*
X0376000Y0208100D03*
X0381000Y0208100D03*
X0381000Y0183900D03*
X0376000Y0183900D03*
X0371000Y0183900D03*
X0366000Y0183900D03*
X0361000Y0183900D03*
X0356000Y0183900D03*
X0351000Y0183900D03*
X0351000Y0153100D03*
X0356000Y0153100D03*
X0361000Y0153100D03*
X0366000Y0153100D03*
X0371000Y0153100D03*
X0376000Y0153100D03*
X0381000Y0153100D03*
X0381000Y0128900D03*
X0376000Y0128900D03*
X0371000Y0128900D03*
X0366000Y0128900D03*
X0361000Y0128900D03*
X0356000Y0128900D03*
X0351000Y0128900D03*
D15*
X0206000Y0155402D03*
X0206000Y0166598D03*
D16*
X0136000Y0129346D03*
X0136000Y0122654D03*
X0136000Y0114346D03*
X0136000Y0107654D03*
D17*
X0150764Y0106000D03*
X0150764Y0101000D03*
X0150764Y0096000D03*
X0150764Y0091000D03*
X0150764Y0086000D03*
X0171236Y0086000D03*
X0171236Y0091000D03*
X0171236Y0096000D03*
X0171236Y0101000D03*
X0171236Y0106000D03*
X0171236Y0111000D03*
X0171236Y0116000D03*
X0150764Y0116000D03*
X0150764Y0111000D03*
D18*
X0212260Y0058559D03*
X0212260Y0056000D03*
X0212260Y0053441D03*
X0219740Y0053441D03*
X0219740Y0056000D03*
X0219740Y0058559D03*
M02*
