G75*
%MOIN*%
%OFA0B0*%
%FSLAX25Y25*%
%IPPOS*%
%LPD*%
%AMOC8*
5,1,8,0,0,1.08239X$1,22.5*
%
%ADD10C,0.00000*%
%ADD11C,0.00300*%
%ADD12C,0.00600*%
%ADD13C,0.00400*%
%ADD14C,0.00700*%
%ADD15C,0.00200*%
%ADD16C,0.00500*%
%ADD17C,0.00800*%
%ADD18C,0.01181*%
D10*
X0001000Y0001000D02*
X0001000Y0315961D01*
X0394701Y0315961D01*
X0394701Y0001000D01*
X0001000Y0001000D01*
D11*
X0207398Y0040524D02*
X0207398Y0041976D01*
X0207881Y0042459D01*
X0209816Y0042459D01*
X0210300Y0041976D01*
X0210300Y0040524D01*
X0207398Y0040524D01*
X0208365Y0043471D02*
X0207398Y0044438D01*
X0208365Y0045406D01*
X0210300Y0045406D01*
X0209816Y0046417D02*
X0210300Y0046901D01*
X0210300Y0047869D01*
X0209816Y0048352D01*
X0209816Y0049364D02*
X0210300Y0049364D01*
X0209816Y0049364D02*
X0207881Y0051299D01*
X0207398Y0051299D01*
X0207398Y0049364D01*
X0207881Y0048352D02*
X0207398Y0047869D01*
X0207398Y0046901D01*
X0207881Y0046417D01*
X0209816Y0046417D01*
X0208849Y0045406D02*
X0208849Y0043471D01*
X0208365Y0043471D02*
X0210300Y0043471D01*
X0209816Y0052310D02*
X0210300Y0052794D01*
X0210300Y0053762D01*
X0209816Y0054245D01*
X0209333Y0054245D01*
X0208849Y0053762D01*
X0208849Y0053278D01*
X0208849Y0053762D02*
X0208365Y0054245D01*
X0207881Y0054245D01*
X0207398Y0053762D01*
X0207398Y0052794D01*
X0207881Y0052310D01*
X0208365Y0055257D02*
X0207398Y0056224D01*
X0210300Y0056224D01*
X0210300Y0055257D02*
X0210300Y0057192D01*
X0210300Y0058203D02*
X0210300Y0060138D01*
X0210300Y0059171D02*
X0207398Y0059171D01*
X0208365Y0058203D01*
X0224651Y0048168D02*
X0228354Y0048168D01*
X0228354Y0049402D02*
X0228354Y0046933D01*
X0225885Y0046933D02*
X0224651Y0048168D01*
X0225885Y0050616D02*
X0227737Y0050616D01*
X0228354Y0051234D01*
X0228354Y0053085D01*
X0225885Y0053085D01*
X0223354Y0191933D02*
X0223354Y0194402D01*
X0223354Y0193168D02*
X0219651Y0193168D01*
X0220885Y0191933D01*
X0220885Y0195616D02*
X0222737Y0195616D01*
X0223354Y0196234D01*
X0223354Y0198085D01*
X0220885Y0198085D01*
X0221729Y0268000D02*
X0219260Y0268000D01*
X0218643Y0268618D01*
X0218643Y0269852D01*
X0219260Y0270469D01*
X0221729Y0268000D01*
X0222346Y0268618D01*
X0222346Y0269852D01*
X0221729Y0270469D01*
X0219260Y0270469D01*
X0221729Y0271684D02*
X0221729Y0272301D01*
X0222346Y0272301D01*
X0222346Y0271684D01*
X0221729Y0271684D01*
X0222346Y0273525D02*
X0222346Y0275994D01*
X0222346Y0274759D02*
X0218643Y0274759D01*
X0219877Y0273525D01*
X0219877Y0277208D02*
X0221729Y0277208D01*
X0222346Y0277825D01*
X0222346Y0279677D01*
X0219877Y0279677D01*
X0207346Y0279677D02*
X0207346Y0277825D01*
X0206729Y0277208D01*
X0204877Y0277208D01*
X0204877Y0279677D02*
X0207346Y0279677D01*
X0207346Y0275994D02*
X0207346Y0273525D01*
X0207346Y0272301D02*
X0207346Y0271684D01*
X0206729Y0271684D01*
X0206729Y0272301D01*
X0207346Y0272301D01*
X0206729Y0270469D02*
X0207346Y0269852D01*
X0207346Y0268618D01*
X0206729Y0268000D01*
X0204260Y0270469D01*
X0206729Y0270469D01*
X0206729Y0268000D02*
X0204260Y0268000D01*
X0203643Y0268618D01*
X0203643Y0269852D01*
X0204260Y0270469D01*
X0204877Y0273525D02*
X0203643Y0274759D01*
X0207346Y0274759D01*
X0192346Y0274759D02*
X0188643Y0274759D01*
X0189877Y0273525D01*
X0191729Y0272301D02*
X0192346Y0272301D01*
X0192346Y0271684D01*
X0191729Y0271684D01*
X0191729Y0272301D01*
X0192346Y0273525D02*
X0192346Y0275994D01*
X0191729Y0277208D02*
X0192346Y0277825D01*
X0192346Y0279677D01*
X0189877Y0279677D01*
X0189877Y0277208D02*
X0191729Y0277208D01*
X0191729Y0270469D02*
X0189260Y0270469D01*
X0191729Y0268000D01*
X0192346Y0268618D01*
X0192346Y0269852D01*
X0191729Y0270469D01*
X0191729Y0268000D02*
X0189260Y0268000D01*
X0188643Y0268618D01*
X0188643Y0269852D01*
X0189260Y0270469D01*
X0177346Y0269852D02*
X0177346Y0268618D01*
X0176729Y0268000D01*
X0174260Y0270469D01*
X0176729Y0270469D01*
X0177346Y0269852D01*
X0177346Y0271684D02*
X0177346Y0272301D01*
X0176729Y0272301D01*
X0176729Y0271684D01*
X0177346Y0271684D01*
X0177346Y0273525D02*
X0177346Y0275994D01*
X0177346Y0274759D02*
X0173643Y0274759D01*
X0174877Y0273525D01*
X0174260Y0270469D02*
X0173643Y0269852D01*
X0173643Y0268618D01*
X0174260Y0268000D01*
X0176729Y0268000D01*
X0176729Y0277208D02*
X0177346Y0277825D01*
X0177346Y0279677D01*
X0174877Y0279677D01*
X0174877Y0277208D02*
X0176729Y0277208D01*
X0162346Y0277825D02*
X0162346Y0279677D01*
X0159877Y0279677D01*
X0159877Y0277208D02*
X0161729Y0277208D01*
X0162346Y0277825D01*
X0162346Y0275994D02*
X0162346Y0273525D01*
X0162346Y0272301D02*
X0161729Y0272301D01*
X0161729Y0271684D01*
X0162346Y0271684D01*
X0162346Y0272301D01*
X0161729Y0270469D02*
X0162346Y0269852D01*
X0162346Y0268618D01*
X0161729Y0268000D01*
X0159260Y0270469D01*
X0161729Y0270469D01*
X0161729Y0268000D02*
X0159260Y0268000D01*
X0158643Y0268618D01*
X0158643Y0269852D01*
X0159260Y0270469D01*
X0159877Y0273525D02*
X0158643Y0274759D01*
X0162346Y0274759D01*
X0147346Y0274759D02*
X0143643Y0274759D01*
X0144877Y0273525D01*
X0146729Y0272301D02*
X0147346Y0272301D01*
X0147346Y0271684D01*
X0146729Y0271684D01*
X0146729Y0272301D01*
X0147346Y0273525D02*
X0147346Y0275994D01*
X0146729Y0277208D02*
X0147346Y0277825D01*
X0147346Y0279677D01*
X0144877Y0279677D01*
X0144877Y0277208D02*
X0146729Y0277208D01*
X0146729Y0270469D02*
X0144260Y0270469D01*
X0146729Y0268000D01*
X0147346Y0268618D01*
X0147346Y0269852D01*
X0146729Y0270469D01*
X0146729Y0268000D02*
X0144260Y0268000D01*
X0143643Y0268618D01*
X0143643Y0269852D01*
X0144260Y0270469D01*
X0132346Y0269852D02*
X0132346Y0268618D01*
X0131729Y0268000D01*
X0129260Y0270469D01*
X0131729Y0270469D01*
X0132346Y0269852D01*
X0132346Y0271684D02*
X0132346Y0272301D01*
X0131729Y0272301D01*
X0131729Y0271684D01*
X0132346Y0271684D01*
X0132346Y0273525D02*
X0132346Y0275994D01*
X0132346Y0274759D02*
X0128643Y0274759D01*
X0129877Y0273525D01*
X0129260Y0270469D02*
X0128643Y0269852D01*
X0128643Y0268618D01*
X0129260Y0268000D01*
X0131729Y0268000D01*
X0131729Y0277208D02*
X0129877Y0277208D01*
X0131729Y0277208D02*
X0132346Y0277825D01*
X0132346Y0279677D01*
X0129877Y0279677D01*
X0117346Y0279677D02*
X0117346Y0277825D01*
X0116729Y0277208D01*
X0114877Y0277208D01*
X0114877Y0279677D02*
X0117346Y0279677D01*
X0117346Y0275994D02*
X0117346Y0273525D01*
X0117346Y0272301D02*
X0117346Y0271684D01*
X0116729Y0271684D01*
X0116729Y0272301D01*
X0117346Y0272301D01*
X0116729Y0270469D02*
X0117346Y0269852D01*
X0117346Y0268618D01*
X0116729Y0268000D01*
X0114260Y0270469D01*
X0116729Y0270469D01*
X0116729Y0268000D02*
X0114260Y0268000D01*
X0113643Y0268618D01*
X0113643Y0269852D01*
X0114260Y0270469D01*
X0114877Y0273525D02*
X0113643Y0274759D01*
X0117346Y0274759D01*
X0102346Y0274759D02*
X0098643Y0274759D01*
X0099877Y0273525D01*
X0101729Y0272301D02*
X0102346Y0272301D01*
X0102346Y0271684D01*
X0101729Y0271684D01*
X0101729Y0272301D01*
X0102346Y0273525D02*
X0102346Y0275994D01*
X0101729Y0277208D02*
X0102346Y0277825D01*
X0102346Y0279677D01*
X0099877Y0279677D01*
X0099877Y0277208D02*
X0101729Y0277208D01*
X0101729Y0270469D02*
X0102346Y0269852D01*
X0102346Y0268618D01*
X0101729Y0268000D01*
X0099260Y0270469D01*
X0101729Y0270469D01*
X0101729Y0268000D02*
X0099260Y0268000D01*
X0098643Y0268618D01*
X0098643Y0269852D01*
X0099260Y0270469D01*
X0087346Y0269852D02*
X0087346Y0268618D01*
X0086729Y0268000D01*
X0084260Y0270469D01*
X0086729Y0270469D01*
X0087346Y0269852D01*
X0087346Y0271684D02*
X0087346Y0272301D01*
X0086729Y0272301D01*
X0086729Y0271684D01*
X0087346Y0271684D01*
X0087346Y0273525D02*
X0087346Y0275994D01*
X0087346Y0274759D02*
X0083643Y0274759D01*
X0084877Y0273525D01*
X0084260Y0270469D02*
X0083643Y0269852D01*
X0083643Y0268618D01*
X0084260Y0268000D01*
X0086729Y0268000D01*
X0086729Y0277208D02*
X0087346Y0277825D01*
X0087346Y0279677D01*
X0084877Y0279677D01*
X0084877Y0277208D02*
X0086729Y0277208D01*
X0072346Y0277825D02*
X0072346Y0279677D01*
X0069877Y0279677D01*
X0069877Y0277208D02*
X0071729Y0277208D01*
X0072346Y0277825D01*
X0072346Y0275994D02*
X0072346Y0273525D01*
X0072346Y0272301D02*
X0072346Y0271684D01*
X0071729Y0271684D01*
X0071729Y0272301D01*
X0072346Y0272301D01*
X0071729Y0270469D02*
X0072346Y0269852D01*
X0072346Y0268618D01*
X0071729Y0268000D01*
X0069260Y0270469D01*
X0071729Y0270469D01*
X0071729Y0268000D02*
X0069260Y0268000D01*
X0068643Y0268618D01*
X0068643Y0269852D01*
X0069260Y0270469D01*
X0069877Y0273525D02*
X0068643Y0274759D01*
X0072346Y0274759D01*
X0057346Y0274759D02*
X0053643Y0274759D01*
X0054877Y0273525D01*
X0056729Y0272301D02*
X0057346Y0272301D01*
X0057346Y0271684D01*
X0056729Y0271684D01*
X0056729Y0272301D01*
X0057346Y0273525D02*
X0057346Y0275994D01*
X0056729Y0277208D02*
X0057346Y0277825D01*
X0057346Y0279677D01*
X0054877Y0279677D01*
X0054877Y0277208D02*
X0056729Y0277208D01*
X0056729Y0270469D02*
X0054260Y0270469D01*
X0056729Y0268000D01*
X0057346Y0268618D01*
X0057346Y0269852D01*
X0056729Y0270469D01*
X0056729Y0268000D02*
X0054260Y0268000D01*
X0053643Y0268618D01*
X0053643Y0269852D01*
X0054260Y0270469D01*
X0042346Y0269852D02*
X0042346Y0268618D01*
X0041729Y0268000D01*
X0039260Y0270469D01*
X0041729Y0270469D01*
X0042346Y0269852D01*
X0042346Y0271684D02*
X0042346Y0272301D01*
X0041729Y0272301D01*
X0041729Y0271684D01*
X0042346Y0271684D01*
X0042346Y0273525D02*
X0042346Y0275994D01*
X0042346Y0274759D02*
X0038643Y0274759D01*
X0039877Y0273525D01*
X0039260Y0270469D02*
X0038643Y0269852D01*
X0038643Y0268618D01*
X0039260Y0268000D01*
X0041729Y0268000D01*
X0041729Y0277208D02*
X0042346Y0277825D01*
X0042346Y0279677D01*
X0039877Y0279677D01*
X0039877Y0277208D02*
X0041729Y0277208D01*
X0027346Y0277825D02*
X0027346Y0279677D01*
X0024877Y0279677D01*
X0024877Y0277208D02*
X0026729Y0277208D01*
X0027346Y0277825D01*
X0027346Y0275994D02*
X0027346Y0273525D01*
X0027346Y0272301D02*
X0027346Y0271684D01*
X0026729Y0271684D01*
X0026729Y0272301D01*
X0027346Y0272301D01*
X0026729Y0270469D02*
X0027346Y0269852D01*
X0027346Y0268618D01*
X0026729Y0268000D01*
X0024260Y0270469D01*
X0026729Y0270469D01*
X0026729Y0268000D02*
X0024260Y0268000D01*
X0023643Y0268618D01*
X0023643Y0269852D01*
X0024260Y0270469D01*
X0024877Y0273525D02*
X0023643Y0274759D01*
X0027346Y0274759D01*
X0070885Y0198085D02*
X0073354Y0198085D01*
X0073354Y0196234D01*
X0072737Y0195616D01*
X0070885Y0195616D01*
X0069651Y0193168D02*
X0073354Y0193168D01*
X0073354Y0194402D02*
X0073354Y0191933D01*
X0070885Y0191933D02*
X0069651Y0193168D01*
X0233643Y0268618D02*
X0233643Y0269852D01*
X0234260Y0270469D01*
X0236729Y0268000D01*
X0237346Y0268618D01*
X0237346Y0269852D01*
X0236729Y0270469D01*
X0234260Y0270469D01*
X0233643Y0268618D02*
X0234260Y0268000D01*
X0236729Y0268000D01*
X0236729Y0271684D02*
X0236729Y0272301D01*
X0237346Y0272301D01*
X0237346Y0271684D01*
X0236729Y0271684D01*
X0237346Y0273525D02*
X0237346Y0275994D01*
X0237346Y0274759D02*
X0233643Y0274759D01*
X0234877Y0273525D01*
X0234877Y0277208D02*
X0236729Y0277208D01*
X0237346Y0277825D01*
X0237346Y0279677D01*
X0234877Y0279677D01*
X0248643Y0274759D02*
X0252346Y0274759D01*
X0252346Y0273525D02*
X0252346Y0275994D01*
X0251729Y0277208D02*
X0252346Y0277825D01*
X0252346Y0279677D01*
X0249877Y0279677D01*
X0249877Y0277208D02*
X0251729Y0277208D01*
X0248643Y0274759D02*
X0249877Y0273525D01*
X0251729Y0272301D02*
X0252346Y0272301D01*
X0252346Y0271684D01*
X0251729Y0271684D01*
X0251729Y0272301D01*
X0251729Y0270469D02*
X0252346Y0269852D01*
X0252346Y0268618D01*
X0251729Y0268000D01*
X0249260Y0270469D01*
X0251729Y0270469D01*
X0251729Y0268000D02*
X0249260Y0268000D01*
X0248643Y0268618D01*
X0248643Y0269852D01*
X0249260Y0270469D01*
X0263643Y0269852D02*
X0263643Y0268618D01*
X0264260Y0268000D01*
X0266729Y0268000D01*
X0264260Y0270469D01*
X0266729Y0270469D01*
X0267346Y0269852D01*
X0267346Y0268618D01*
X0266729Y0268000D01*
X0264260Y0270469D02*
X0263643Y0269852D01*
X0266729Y0271684D02*
X0266729Y0272301D01*
X0267346Y0272301D01*
X0267346Y0271684D01*
X0266729Y0271684D01*
X0267346Y0273525D02*
X0267346Y0275994D01*
X0267346Y0274759D02*
X0263643Y0274759D01*
X0264877Y0273525D01*
X0264877Y0277208D02*
X0266729Y0277208D01*
X0267346Y0277825D01*
X0267346Y0279677D01*
X0264877Y0279677D01*
X0278643Y0274759D02*
X0282346Y0274759D01*
X0282346Y0273525D02*
X0282346Y0275994D01*
X0281729Y0277208D02*
X0282346Y0277825D01*
X0282346Y0279677D01*
X0279877Y0279677D01*
X0279877Y0277208D02*
X0281729Y0277208D01*
X0278643Y0274759D02*
X0279877Y0273525D01*
X0281729Y0272301D02*
X0282346Y0272301D01*
X0282346Y0271684D01*
X0281729Y0271684D01*
X0281729Y0272301D01*
X0281729Y0270469D02*
X0282346Y0269852D01*
X0282346Y0268618D01*
X0281729Y0268000D01*
X0279260Y0270469D01*
X0281729Y0270469D01*
X0281729Y0268000D02*
X0279260Y0268000D01*
X0278643Y0268618D01*
X0278643Y0269852D01*
X0279260Y0270469D01*
X0293643Y0269852D02*
X0293643Y0268618D01*
X0294260Y0268000D01*
X0296729Y0268000D01*
X0294260Y0270469D01*
X0296729Y0270469D01*
X0297346Y0269852D01*
X0297346Y0268618D01*
X0296729Y0268000D01*
X0294260Y0270469D02*
X0293643Y0269852D01*
X0296729Y0271684D02*
X0296729Y0272301D01*
X0297346Y0272301D01*
X0297346Y0271684D01*
X0296729Y0271684D01*
X0297346Y0273525D02*
X0297346Y0275994D01*
X0297346Y0274759D02*
X0293643Y0274759D01*
X0294877Y0273525D01*
X0294877Y0277208D02*
X0296729Y0277208D01*
X0297346Y0277825D01*
X0297346Y0279677D01*
X0294877Y0279677D01*
X0308643Y0274759D02*
X0312346Y0274759D01*
X0312346Y0273525D02*
X0312346Y0275994D01*
X0311729Y0277208D02*
X0312346Y0277825D01*
X0312346Y0279677D01*
X0309877Y0279677D01*
X0309877Y0277208D02*
X0311729Y0277208D01*
X0308643Y0274759D02*
X0309877Y0273525D01*
X0311729Y0272301D02*
X0312346Y0272301D01*
X0312346Y0271684D01*
X0311729Y0271684D01*
X0311729Y0272301D01*
X0311729Y0270469D02*
X0312346Y0269852D01*
X0312346Y0268618D01*
X0311729Y0268000D01*
X0309260Y0270469D01*
X0311729Y0270469D01*
X0311729Y0268000D02*
X0309260Y0268000D01*
X0308643Y0268618D01*
X0308643Y0269852D01*
X0309260Y0270469D01*
X0323643Y0269852D02*
X0323643Y0268618D01*
X0324260Y0268000D01*
X0326729Y0268000D01*
X0324260Y0270469D01*
X0326729Y0270469D01*
X0327346Y0269852D01*
X0327346Y0268618D01*
X0326729Y0268000D01*
X0324260Y0270469D02*
X0323643Y0269852D01*
X0326729Y0271684D02*
X0326729Y0272301D01*
X0327346Y0272301D01*
X0327346Y0271684D01*
X0326729Y0271684D01*
X0327346Y0273525D02*
X0327346Y0275994D01*
X0327346Y0274759D02*
X0323643Y0274759D01*
X0324877Y0273525D01*
X0324877Y0277208D02*
X0326729Y0277208D01*
X0327346Y0277825D01*
X0327346Y0279677D01*
X0324877Y0279677D01*
X0338643Y0274759D02*
X0342346Y0274759D01*
X0342346Y0273525D02*
X0342346Y0275994D01*
X0341729Y0277208D02*
X0342346Y0277825D01*
X0342346Y0279677D01*
X0339877Y0279677D01*
X0339877Y0277208D02*
X0341729Y0277208D01*
X0338643Y0274759D02*
X0339877Y0273525D01*
X0341729Y0272301D02*
X0342346Y0272301D01*
X0342346Y0271684D01*
X0341729Y0271684D01*
X0341729Y0272301D01*
X0341729Y0270469D02*
X0342346Y0269852D01*
X0342346Y0268618D01*
X0341729Y0268000D01*
X0339260Y0270469D01*
X0341729Y0270469D01*
X0341729Y0268000D02*
X0339260Y0268000D01*
X0338643Y0268618D01*
X0338643Y0269852D01*
X0339260Y0270469D01*
X0353643Y0269852D02*
X0353643Y0268618D01*
X0354260Y0268000D01*
X0356729Y0268000D01*
X0354260Y0270469D01*
X0356729Y0270469D01*
X0357346Y0269852D01*
X0357346Y0268618D01*
X0356729Y0268000D01*
X0354260Y0270469D02*
X0353643Y0269852D01*
X0356729Y0271684D02*
X0356729Y0272301D01*
X0357346Y0272301D01*
X0357346Y0271684D01*
X0356729Y0271684D01*
X0357346Y0273525D02*
X0357346Y0275994D01*
X0357346Y0274759D02*
X0353643Y0274759D01*
X0354877Y0273525D01*
X0354877Y0277208D02*
X0356729Y0277208D01*
X0357346Y0277825D01*
X0357346Y0279677D01*
X0354877Y0279677D01*
X0368643Y0274759D02*
X0372346Y0274759D01*
X0372346Y0273525D02*
X0372346Y0275994D01*
X0371729Y0277208D02*
X0372346Y0277825D01*
X0372346Y0279677D01*
X0369877Y0279677D01*
X0369877Y0277208D02*
X0371729Y0277208D01*
X0368643Y0274759D02*
X0369877Y0273525D01*
X0371729Y0272301D02*
X0372346Y0272301D01*
X0372346Y0271684D01*
X0371729Y0271684D01*
X0371729Y0272301D01*
X0371729Y0270469D02*
X0372346Y0269852D01*
X0372346Y0268618D01*
X0371729Y0268000D01*
X0369260Y0270469D01*
X0371729Y0270469D01*
X0371729Y0268000D02*
X0369260Y0268000D01*
X0368643Y0268618D01*
X0368643Y0269852D01*
X0369260Y0270469D01*
X0383643Y0269852D02*
X0383643Y0268618D01*
X0384260Y0268000D01*
X0386729Y0268000D01*
X0384260Y0270469D01*
X0386729Y0270469D01*
X0387346Y0269852D01*
X0387346Y0268618D01*
X0386729Y0268000D01*
X0384260Y0270469D02*
X0383643Y0269852D01*
X0386729Y0271684D02*
X0386729Y0272301D01*
X0387346Y0272301D01*
X0387346Y0271684D01*
X0386729Y0271684D01*
X0387346Y0273525D02*
X0387346Y0275994D01*
X0387346Y0274759D02*
X0383643Y0274759D01*
X0384877Y0273525D01*
X0384877Y0277208D02*
X0386729Y0277208D01*
X0387346Y0277825D01*
X0387346Y0279677D01*
X0384877Y0279677D01*
D12*
X0368500Y0296000D02*
X0363500Y0296000D01*
X0361000Y0298500D01*
X0358500Y0296000D01*
X0353500Y0296000D01*
X0351000Y0298500D01*
X0348500Y0296000D01*
X0343500Y0296000D01*
X0341000Y0298500D01*
X0338500Y0296000D01*
X0333500Y0296000D01*
X0331000Y0298500D01*
X0328500Y0296000D01*
X0323500Y0296000D01*
X0321000Y0298500D01*
X0321000Y0303500D01*
X0323500Y0306000D01*
X0328500Y0306000D01*
X0331000Y0303500D01*
X0333500Y0306000D01*
X0338500Y0306000D01*
X0341000Y0303500D01*
X0341000Y0298500D01*
X0341000Y0303500D02*
X0343500Y0306000D01*
X0348500Y0306000D01*
X0351000Y0303500D01*
X0353500Y0306000D01*
X0358500Y0306000D01*
X0361000Y0303500D01*
X0363500Y0306000D01*
X0368500Y0306000D01*
X0371000Y0303500D01*
X0371000Y0298500D01*
X0368500Y0296000D01*
X0361000Y0298500D02*
X0361000Y0303500D01*
X0351000Y0303500D02*
X0351000Y0298500D01*
X0331000Y0298500D02*
X0331000Y0303500D01*
X0296000Y0303500D02*
X0296000Y0298500D01*
X0293500Y0296000D01*
X0288500Y0296000D01*
X0286000Y0298500D01*
X0283500Y0296000D01*
X0278500Y0296000D01*
X0276000Y0298500D01*
X0273500Y0296000D01*
X0268500Y0296000D01*
X0266000Y0298500D01*
X0263500Y0296000D01*
X0258500Y0296000D01*
X0256000Y0298500D01*
X0253500Y0296000D01*
X0248500Y0296000D01*
X0246000Y0298500D01*
X0246000Y0303500D01*
X0248500Y0306000D01*
X0253500Y0306000D01*
X0256000Y0303500D01*
X0258500Y0306000D01*
X0263500Y0306000D01*
X0266000Y0303500D01*
X0266000Y0298500D01*
X0266000Y0303500D02*
X0268500Y0306000D01*
X0273500Y0306000D01*
X0276000Y0303500D01*
X0278500Y0306000D01*
X0283500Y0306000D01*
X0286000Y0303500D01*
X0288500Y0306000D01*
X0293500Y0306000D01*
X0296000Y0303500D01*
X0286000Y0303500D02*
X0286000Y0298500D01*
X0276000Y0298500D02*
X0276000Y0303500D01*
X0256000Y0303500D02*
X0256000Y0298500D01*
X0221000Y0298500D02*
X0218500Y0296000D01*
X0213500Y0296000D01*
X0211000Y0298500D01*
X0208500Y0296000D01*
X0203500Y0296000D01*
X0201000Y0298500D01*
X0198500Y0296000D01*
X0193500Y0296000D01*
X0191000Y0298500D01*
X0188500Y0296000D01*
X0183500Y0296000D01*
X0181000Y0298500D01*
X0178500Y0296000D01*
X0173500Y0296000D01*
X0171000Y0298500D01*
X0171000Y0303500D01*
X0173500Y0306000D01*
X0178500Y0306000D01*
X0181000Y0303500D01*
X0183500Y0306000D01*
X0188500Y0306000D01*
X0191000Y0303500D01*
X0191000Y0298500D01*
X0191000Y0303500D02*
X0193500Y0306000D01*
X0198500Y0306000D01*
X0201000Y0303500D01*
X0203500Y0306000D01*
X0208500Y0306000D01*
X0211000Y0303500D01*
X0213500Y0306000D01*
X0218500Y0306000D01*
X0221000Y0303500D01*
X0221000Y0298500D01*
X0211000Y0298500D02*
X0211000Y0303500D01*
X0201000Y0303500D02*
X0201000Y0298500D01*
X0181000Y0298500D02*
X0181000Y0303500D01*
X0146000Y0303500D02*
X0146000Y0298500D01*
X0143500Y0296000D01*
X0138500Y0296000D01*
X0136000Y0298500D01*
X0133500Y0296000D01*
X0128500Y0296000D01*
X0126000Y0298500D01*
X0123500Y0296000D01*
X0118500Y0296000D01*
X0116000Y0298500D01*
X0113500Y0296000D01*
X0108500Y0296000D01*
X0106000Y0298500D01*
X0103500Y0296000D01*
X0098500Y0296000D01*
X0096000Y0298500D01*
X0096000Y0303500D01*
X0098500Y0306000D01*
X0103500Y0306000D01*
X0106000Y0303500D01*
X0108500Y0306000D01*
X0113500Y0306000D01*
X0116000Y0303500D01*
X0116000Y0298500D01*
X0116000Y0303500D02*
X0118500Y0306000D01*
X0123500Y0306000D01*
X0126000Y0303500D01*
X0128500Y0306000D01*
X0133500Y0306000D01*
X0136000Y0303500D01*
X0138500Y0306000D01*
X0143500Y0306000D01*
X0146000Y0303500D01*
X0136000Y0303500D02*
X0136000Y0298500D01*
X0126000Y0298500D02*
X0126000Y0303500D01*
X0106000Y0303500D02*
X0106000Y0298500D01*
X0071000Y0298500D02*
X0068500Y0296000D01*
X0063500Y0296000D01*
X0061000Y0298500D01*
X0058500Y0296000D01*
X0053500Y0296000D01*
X0051000Y0298500D01*
X0048500Y0296000D01*
X0043500Y0296000D01*
X0041000Y0298500D01*
X0038500Y0296000D01*
X0033500Y0296000D01*
X0031000Y0298500D01*
X0028500Y0296000D01*
X0023500Y0296000D01*
X0021000Y0298500D01*
X0021000Y0303500D01*
X0023500Y0306000D01*
X0028500Y0306000D01*
X0031000Y0303500D01*
X0033500Y0306000D01*
X0038500Y0306000D01*
X0041000Y0303500D01*
X0041000Y0298500D01*
X0041000Y0303500D02*
X0043500Y0306000D01*
X0048500Y0306000D01*
X0051000Y0303500D01*
X0053500Y0306000D01*
X0058500Y0306000D01*
X0061000Y0303500D01*
X0063500Y0306000D01*
X0068500Y0306000D01*
X0071000Y0303500D01*
X0071000Y0298500D01*
X0061000Y0298500D02*
X0061000Y0303500D01*
X0051000Y0303500D02*
X0051000Y0298500D01*
X0031000Y0298500D02*
X0031000Y0303500D01*
X0088700Y0205619D02*
X0088700Y0176381D01*
X0158200Y0176381D01*
X0158200Y0205619D01*
X0088700Y0205619D01*
X0152400Y0203400D02*
X0152402Y0203492D01*
X0152408Y0203583D01*
X0152418Y0203674D01*
X0152432Y0203765D01*
X0152450Y0203855D01*
X0152472Y0203944D01*
X0152497Y0204031D01*
X0152527Y0204118D01*
X0152560Y0204204D01*
X0152597Y0204287D01*
X0152637Y0204370D01*
X0152681Y0204450D01*
X0152729Y0204528D01*
X0152780Y0204605D01*
X0152834Y0204678D01*
X0152891Y0204750D01*
X0152952Y0204819D01*
X0153015Y0204885D01*
X0153081Y0204948D01*
X0153150Y0205009D01*
X0153222Y0205066D01*
X0153295Y0205120D01*
X0153372Y0205171D01*
X0153450Y0205219D01*
X0153530Y0205263D01*
X0153613Y0205303D01*
X0153696Y0205340D01*
X0153782Y0205373D01*
X0153869Y0205403D01*
X0153956Y0205428D01*
X0154045Y0205450D01*
X0154135Y0205468D01*
X0154226Y0205482D01*
X0154317Y0205492D01*
X0154408Y0205498D01*
X0154500Y0205500D01*
X0154592Y0205498D01*
X0154683Y0205492D01*
X0154774Y0205482D01*
X0154865Y0205468D01*
X0154955Y0205450D01*
X0155044Y0205428D01*
X0155131Y0205403D01*
X0155218Y0205373D01*
X0155304Y0205340D01*
X0155387Y0205303D01*
X0155470Y0205263D01*
X0155550Y0205219D01*
X0155628Y0205171D01*
X0155705Y0205120D01*
X0155778Y0205066D01*
X0155850Y0205009D01*
X0155919Y0204948D01*
X0155985Y0204885D01*
X0156048Y0204819D01*
X0156109Y0204750D01*
X0156166Y0204678D01*
X0156220Y0204605D01*
X0156271Y0204528D01*
X0156319Y0204450D01*
X0156363Y0204370D01*
X0156403Y0204287D01*
X0156440Y0204204D01*
X0156473Y0204118D01*
X0156503Y0204031D01*
X0156528Y0203944D01*
X0156550Y0203855D01*
X0156568Y0203765D01*
X0156582Y0203674D01*
X0156592Y0203583D01*
X0156598Y0203492D01*
X0156600Y0203400D01*
X0156598Y0203308D01*
X0156592Y0203217D01*
X0156582Y0203126D01*
X0156568Y0203035D01*
X0156550Y0202945D01*
X0156528Y0202856D01*
X0156503Y0202769D01*
X0156473Y0202682D01*
X0156440Y0202596D01*
X0156403Y0202513D01*
X0156363Y0202430D01*
X0156319Y0202350D01*
X0156271Y0202272D01*
X0156220Y0202195D01*
X0156166Y0202122D01*
X0156109Y0202050D01*
X0156048Y0201981D01*
X0155985Y0201915D01*
X0155919Y0201852D01*
X0155850Y0201791D01*
X0155778Y0201734D01*
X0155705Y0201680D01*
X0155628Y0201629D01*
X0155550Y0201581D01*
X0155470Y0201537D01*
X0155387Y0201497D01*
X0155304Y0201460D01*
X0155218Y0201427D01*
X0155131Y0201397D01*
X0155044Y0201372D01*
X0154955Y0201350D01*
X0154865Y0201332D01*
X0154774Y0201318D01*
X0154683Y0201308D01*
X0154592Y0201302D01*
X0154500Y0201300D01*
X0154408Y0201302D01*
X0154317Y0201308D01*
X0154226Y0201318D01*
X0154135Y0201332D01*
X0154045Y0201350D01*
X0153956Y0201372D01*
X0153869Y0201397D01*
X0153782Y0201427D01*
X0153696Y0201460D01*
X0153613Y0201497D01*
X0153530Y0201537D01*
X0153450Y0201581D01*
X0153372Y0201629D01*
X0153295Y0201680D01*
X0153222Y0201734D01*
X0153150Y0201791D01*
X0153081Y0201852D01*
X0153015Y0201915D01*
X0152952Y0201981D01*
X0152891Y0202050D01*
X0152834Y0202122D01*
X0152780Y0202195D01*
X0152729Y0202272D01*
X0152681Y0202350D01*
X0152637Y0202430D01*
X0152597Y0202513D01*
X0152560Y0202596D01*
X0152527Y0202682D01*
X0152497Y0202769D01*
X0152472Y0202856D01*
X0152450Y0202945D01*
X0152432Y0203035D01*
X0152418Y0203126D01*
X0152408Y0203217D01*
X0152402Y0203308D01*
X0152400Y0203400D01*
X0238700Y0205619D02*
X0238700Y0176381D01*
X0308200Y0176381D01*
X0308200Y0205619D01*
X0238700Y0205619D01*
X0302400Y0203400D02*
X0302402Y0203492D01*
X0302408Y0203583D01*
X0302418Y0203674D01*
X0302432Y0203765D01*
X0302450Y0203855D01*
X0302472Y0203944D01*
X0302497Y0204031D01*
X0302527Y0204118D01*
X0302560Y0204204D01*
X0302597Y0204287D01*
X0302637Y0204370D01*
X0302681Y0204450D01*
X0302729Y0204528D01*
X0302780Y0204605D01*
X0302834Y0204678D01*
X0302891Y0204750D01*
X0302952Y0204819D01*
X0303015Y0204885D01*
X0303081Y0204948D01*
X0303150Y0205009D01*
X0303222Y0205066D01*
X0303295Y0205120D01*
X0303372Y0205171D01*
X0303450Y0205219D01*
X0303530Y0205263D01*
X0303613Y0205303D01*
X0303696Y0205340D01*
X0303782Y0205373D01*
X0303869Y0205403D01*
X0303956Y0205428D01*
X0304045Y0205450D01*
X0304135Y0205468D01*
X0304226Y0205482D01*
X0304317Y0205492D01*
X0304408Y0205498D01*
X0304500Y0205500D01*
X0304592Y0205498D01*
X0304683Y0205492D01*
X0304774Y0205482D01*
X0304865Y0205468D01*
X0304955Y0205450D01*
X0305044Y0205428D01*
X0305131Y0205403D01*
X0305218Y0205373D01*
X0305304Y0205340D01*
X0305387Y0205303D01*
X0305470Y0205263D01*
X0305550Y0205219D01*
X0305628Y0205171D01*
X0305705Y0205120D01*
X0305778Y0205066D01*
X0305850Y0205009D01*
X0305919Y0204948D01*
X0305985Y0204885D01*
X0306048Y0204819D01*
X0306109Y0204750D01*
X0306166Y0204678D01*
X0306220Y0204605D01*
X0306271Y0204528D01*
X0306319Y0204450D01*
X0306363Y0204370D01*
X0306403Y0204287D01*
X0306440Y0204204D01*
X0306473Y0204118D01*
X0306503Y0204031D01*
X0306528Y0203944D01*
X0306550Y0203855D01*
X0306568Y0203765D01*
X0306582Y0203674D01*
X0306592Y0203583D01*
X0306598Y0203492D01*
X0306600Y0203400D01*
X0306598Y0203308D01*
X0306592Y0203217D01*
X0306582Y0203126D01*
X0306568Y0203035D01*
X0306550Y0202945D01*
X0306528Y0202856D01*
X0306503Y0202769D01*
X0306473Y0202682D01*
X0306440Y0202596D01*
X0306403Y0202513D01*
X0306363Y0202430D01*
X0306319Y0202350D01*
X0306271Y0202272D01*
X0306220Y0202195D01*
X0306166Y0202122D01*
X0306109Y0202050D01*
X0306048Y0201981D01*
X0305985Y0201915D01*
X0305919Y0201852D01*
X0305850Y0201791D01*
X0305778Y0201734D01*
X0305705Y0201680D01*
X0305628Y0201629D01*
X0305550Y0201581D01*
X0305470Y0201537D01*
X0305387Y0201497D01*
X0305304Y0201460D01*
X0305218Y0201427D01*
X0305131Y0201397D01*
X0305044Y0201372D01*
X0304955Y0201350D01*
X0304865Y0201332D01*
X0304774Y0201318D01*
X0304683Y0201308D01*
X0304592Y0201302D01*
X0304500Y0201300D01*
X0304408Y0201302D01*
X0304317Y0201308D01*
X0304226Y0201318D01*
X0304135Y0201332D01*
X0304045Y0201350D01*
X0303956Y0201372D01*
X0303869Y0201397D01*
X0303782Y0201427D01*
X0303696Y0201460D01*
X0303613Y0201497D01*
X0303530Y0201537D01*
X0303450Y0201581D01*
X0303372Y0201629D01*
X0303295Y0201680D01*
X0303222Y0201734D01*
X0303150Y0201791D01*
X0303081Y0201852D01*
X0303015Y0201915D01*
X0302952Y0201981D01*
X0302891Y0202050D01*
X0302834Y0202122D01*
X0302780Y0202195D01*
X0302729Y0202272D01*
X0302681Y0202350D01*
X0302637Y0202430D01*
X0302597Y0202513D01*
X0302560Y0202596D01*
X0302527Y0202682D01*
X0302497Y0202769D01*
X0302472Y0202856D01*
X0302450Y0202945D01*
X0302432Y0203035D01*
X0302418Y0203126D01*
X0302408Y0203217D01*
X0302402Y0203308D01*
X0302400Y0203400D01*
X0348500Y0202200D02*
X0348500Y0198000D01*
X0348500Y0194000D01*
X0348500Y0189800D01*
X0348502Y0189724D01*
X0348508Y0189648D01*
X0348517Y0189573D01*
X0348531Y0189498D01*
X0348548Y0189424D01*
X0348569Y0189351D01*
X0348593Y0189279D01*
X0348622Y0189208D01*
X0348653Y0189139D01*
X0348688Y0189072D01*
X0348727Y0189007D01*
X0348769Y0188943D01*
X0348814Y0188882D01*
X0348862Y0188823D01*
X0348913Y0188767D01*
X0348967Y0188713D01*
X0349023Y0188662D01*
X0349082Y0188614D01*
X0349143Y0188569D01*
X0349207Y0188527D01*
X0349272Y0188488D01*
X0349339Y0188453D01*
X0349408Y0188422D01*
X0349479Y0188393D01*
X0349551Y0188369D01*
X0349624Y0188348D01*
X0349698Y0188331D01*
X0349773Y0188317D01*
X0349848Y0188308D01*
X0349924Y0188302D01*
X0350000Y0188300D01*
X0382000Y0188300D01*
X0382076Y0188302D01*
X0382152Y0188308D01*
X0382227Y0188317D01*
X0382302Y0188331D01*
X0382376Y0188348D01*
X0382449Y0188369D01*
X0382521Y0188393D01*
X0382592Y0188422D01*
X0382661Y0188453D01*
X0382728Y0188488D01*
X0382793Y0188527D01*
X0382857Y0188569D01*
X0382918Y0188614D01*
X0382977Y0188662D01*
X0383033Y0188713D01*
X0383087Y0188767D01*
X0383138Y0188823D01*
X0383186Y0188882D01*
X0383231Y0188943D01*
X0383273Y0189007D01*
X0383312Y0189072D01*
X0383347Y0189139D01*
X0383378Y0189208D01*
X0383407Y0189279D01*
X0383431Y0189351D01*
X0383452Y0189424D01*
X0383469Y0189498D01*
X0383483Y0189573D01*
X0383492Y0189648D01*
X0383498Y0189724D01*
X0383500Y0189800D01*
X0383500Y0202200D01*
X0383498Y0202276D01*
X0383492Y0202352D01*
X0383483Y0202427D01*
X0383469Y0202502D01*
X0383452Y0202576D01*
X0383431Y0202649D01*
X0383407Y0202721D01*
X0383378Y0202792D01*
X0383347Y0202861D01*
X0383312Y0202928D01*
X0383273Y0202993D01*
X0383231Y0203057D01*
X0383186Y0203118D01*
X0383138Y0203177D01*
X0383087Y0203233D01*
X0383033Y0203287D01*
X0382977Y0203338D01*
X0382918Y0203386D01*
X0382857Y0203431D01*
X0382793Y0203473D01*
X0382728Y0203512D01*
X0382661Y0203547D01*
X0382592Y0203578D01*
X0382521Y0203607D01*
X0382449Y0203631D01*
X0382376Y0203652D01*
X0382302Y0203669D01*
X0382227Y0203683D01*
X0382152Y0203692D01*
X0382076Y0203698D01*
X0382000Y0203700D01*
X0350000Y0203700D01*
X0349924Y0203698D01*
X0349848Y0203692D01*
X0349773Y0203683D01*
X0349698Y0203669D01*
X0349624Y0203652D01*
X0349551Y0203631D01*
X0349479Y0203607D01*
X0349408Y0203578D01*
X0349339Y0203547D01*
X0349272Y0203512D01*
X0349207Y0203473D01*
X0349143Y0203431D01*
X0349082Y0203386D01*
X0349023Y0203338D01*
X0348967Y0203287D01*
X0348913Y0203233D01*
X0348862Y0203177D01*
X0348814Y0203118D01*
X0348769Y0203057D01*
X0348727Y0202993D01*
X0348688Y0202928D01*
X0348653Y0202861D01*
X0348622Y0202792D01*
X0348593Y0202721D01*
X0348569Y0202649D01*
X0348548Y0202576D01*
X0348531Y0202502D01*
X0348517Y0202427D01*
X0348508Y0202352D01*
X0348502Y0202276D01*
X0348500Y0202200D01*
X0348500Y0198000D02*
X0348588Y0197998D01*
X0348677Y0197992D01*
X0348765Y0197982D01*
X0348852Y0197969D01*
X0348939Y0197951D01*
X0349025Y0197930D01*
X0349110Y0197905D01*
X0349193Y0197876D01*
X0349276Y0197843D01*
X0349356Y0197807D01*
X0349435Y0197768D01*
X0349513Y0197725D01*
X0349588Y0197678D01*
X0349661Y0197628D01*
X0349732Y0197575D01*
X0349801Y0197519D01*
X0349867Y0197460D01*
X0349930Y0197398D01*
X0349990Y0197334D01*
X0350048Y0197267D01*
X0350102Y0197197D01*
X0350154Y0197125D01*
X0350202Y0197051D01*
X0350247Y0196974D01*
X0350288Y0196896D01*
X0350326Y0196816D01*
X0350360Y0196735D01*
X0350391Y0196652D01*
X0350418Y0196567D01*
X0350441Y0196482D01*
X0350460Y0196396D01*
X0350476Y0196308D01*
X0350488Y0196221D01*
X0350496Y0196133D01*
X0350500Y0196044D01*
X0350500Y0195956D01*
X0350496Y0195867D01*
X0350488Y0195779D01*
X0350476Y0195692D01*
X0350460Y0195604D01*
X0350441Y0195518D01*
X0350418Y0195433D01*
X0350391Y0195348D01*
X0350360Y0195265D01*
X0350326Y0195184D01*
X0350288Y0195104D01*
X0350247Y0195026D01*
X0350202Y0194949D01*
X0350154Y0194875D01*
X0350102Y0194803D01*
X0350048Y0194733D01*
X0349990Y0194666D01*
X0349930Y0194602D01*
X0349867Y0194540D01*
X0349801Y0194481D01*
X0349732Y0194425D01*
X0349661Y0194372D01*
X0349588Y0194322D01*
X0349513Y0194275D01*
X0349435Y0194232D01*
X0349356Y0194193D01*
X0349276Y0194157D01*
X0349193Y0194124D01*
X0349110Y0194095D01*
X0349025Y0194070D01*
X0348939Y0194049D01*
X0348852Y0194031D01*
X0348765Y0194018D01*
X0348677Y0194008D01*
X0348588Y0194002D01*
X0348500Y0194000D01*
X0350000Y0148700D02*
X0382000Y0148700D01*
X0382076Y0148698D01*
X0382152Y0148692D01*
X0382227Y0148683D01*
X0382302Y0148669D01*
X0382376Y0148652D01*
X0382449Y0148631D01*
X0382521Y0148607D01*
X0382592Y0148578D01*
X0382661Y0148547D01*
X0382728Y0148512D01*
X0382793Y0148473D01*
X0382857Y0148431D01*
X0382918Y0148386D01*
X0382977Y0148338D01*
X0383033Y0148287D01*
X0383087Y0148233D01*
X0383138Y0148177D01*
X0383186Y0148118D01*
X0383231Y0148057D01*
X0383273Y0147993D01*
X0383312Y0147928D01*
X0383347Y0147861D01*
X0383378Y0147792D01*
X0383407Y0147721D01*
X0383431Y0147649D01*
X0383452Y0147576D01*
X0383469Y0147502D01*
X0383483Y0147427D01*
X0383492Y0147352D01*
X0383498Y0147276D01*
X0383500Y0147200D01*
X0383500Y0134800D01*
X0383498Y0134724D01*
X0383492Y0134648D01*
X0383483Y0134573D01*
X0383469Y0134498D01*
X0383452Y0134424D01*
X0383431Y0134351D01*
X0383407Y0134279D01*
X0383378Y0134208D01*
X0383347Y0134139D01*
X0383312Y0134072D01*
X0383273Y0134007D01*
X0383231Y0133943D01*
X0383186Y0133882D01*
X0383138Y0133823D01*
X0383087Y0133767D01*
X0383033Y0133713D01*
X0382977Y0133662D01*
X0382918Y0133614D01*
X0382857Y0133569D01*
X0382793Y0133527D01*
X0382728Y0133488D01*
X0382661Y0133453D01*
X0382592Y0133422D01*
X0382521Y0133393D01*
X0382449Y0133369D01*
X0382376Y0133348D01*
X0382302Y0133331D01*
X0382227Y0133317D01*
X0382152Y0133308D01*
X0382076Y0133302D01*
X0382000Y0133300D01*
X0350000Y0133300D01*
X0349924Y0133302D01*
X0349848Y0133308D01*
X0349773Y0133317D01*
X0349698Y0133331D01*
X0349624Y0133348D01*
X0349551Y0133369D01*
X0349479Y0133393D01*
X0349408Y0133422D01*
X0349339Y0133453D01*
X0349272Y0133488D01*
X0349207Y0133527D01*
X0349143Y0133569D01*
X0349082Y0133614D01*
X0349023Y0133662D01*
X0348967Y0133713D01*
X0348913Y0133767D01*
X0348862Y0133823D01*
X0348814Y0133882D01*
X0348769Y0133943D01*
X0348727Y0134007D01*
X0348688Y0134072D01*
X0348653Y0134139D01*
X0348622Y0134208D01*
X0348593Y0134279D01*
X0348569Y0134351D01*
X0348548Y0134424D01*
X0348531Y0134498D01*
X0348517Y0134573D01*
X0348508Y0134648D01*
X0348502Y0134724D01*
X0348500Y0134800D01*
X0348500Y0139000D01*
X0348500Y0143000D01*
X0348500Y0147200D01*
X0348502Y0147276D01*
X0348508Y0147352D01*
X0348517Y0147427D01*
X0348531Y0147502D01*
X0348548Y0147576D01*
X0348569Y0147649D01*
X0348593Y0147721D01*
X0348622Y0147792D01*
X0348653Y0147861D01*
X0348688Y0147928D01*
X0348727Y0147993D01*
X0348769Y0148057D01*
X0348814Y0148118D01*
X0348862Y0148177D01*
X0348913Y0148233D01*
X0348967Y0148287D01*
X0349023Y0148338D01*
X0349082Y0148386D01*
X0349143Y0148431D01*
X0349207Y0148473D01*
X0349272Y0148512D01*
X0349339Y0148547D01*
X0349408Y0148578D01*
X0349479Y0148607D01*
X0349551Y0148631D01*
X0349624Y0148652D01*
X0349698Y0148669D01*
X0349773Y0148683D01*
X0349848Y0148692D01*
X0349924Y0148698D01*
X0350000Y0148700D01*
X0348500Y0143000D02*
X0348588Y0142998D01*
X0348677Y0142992D01*
X0348765Y0142982D01*
X0348852Y0142969D01*
X0348939Y0142951D01*
X0349025Y0142930D01*
X0349110Y0142905D01*
X0349193Y0142876D01*
X0349276Y0142843D01*
X0349356Y0142807D01*
X0349435Y0142768D01*
X0349513Y0142725D01*
X0349588Y0142678D01*
X0349661Y0142628D01*
X0349732Y0142575D01*
X0349801Y0142519D01*
X0349867Y0142460D01*
X0349930Y0142398D01*
X0349990Y0142334D01*
X0350048Y0142267D01*
X0350102Y0142197D01*
X0350154Y0142125D01*
X0350202Y0142051D01*
X0350247Y0141974D01*
X0350288Y0141896D01*
X0350326Y0141816D01*
X0350360Y0141735D01*
X0350391Y0141652D01*
X0350418Y0141567D01*
X0350441Y0141482D01*
X0350460Y0141396D01*
X0350476Y0141308D01*
X0350488Y0141221D01*
X0350496Y0141133D01*
X0350500Y0141044D01*
X0350500Y0140956D01*
X0350496Y0140867D01*
X0350488Y0140779D01*
X0350476Y0140692D01*
X0350460Y0140604D01*
X0350441Y0140518D01*
X0350418Y0140433D01*
X0350391Y0140348D01*
X0350360Y0140265D01*
X0350326Y0140184D01*
X0350288Y0140104D01*
X0350247Y0140026D01*
X0350202Y0139949D01*
X0350154Y0139875D01*
X0350102Y0139803D01*
X0350048Y0139733D01*
X0349990Y0139666D01*
X0349930Y0139602D01*
X0349867Y0139540D01*
X0349801Y0139481D01*
X0349732Y0139425D01*
X0349661Y0139372D01*
X0349588Y0139322D01*
X0349513Y0139275D01*
X0349435Y0139232D01*
X0349356Y0139193D01*
X0349276Y0139157D01*
X0349193Y0139124D01*
X0349110Y0139095D01*
X0349025Y0139070D01*
X0348939Y0139049D01*
X0348852Y0139031D01*
X0348765Y0139018D01*
X0348677Y0139008D01*
X0348588Y0139002D01*
X0348500Y0139000D01*
X0278500Y0021000D02*
X0273500Y0021000D01*
X0271000Y0018500D01*
X0271000Y0013500D01*
X0273500Y0011000D01*
X0278500Y0011000D01*
X0281000Y0013500D01*
X0281000Y0018500D01*
X0278500Y0021000D01*
X0271000Y0018500D02*
X0271000Y0013500D01*
X0268500Y0011000D01*
X0263500Y0011000D01*
X0261000Y0013500D01*
X0261000Y0018500D01*
X0263500Y0021000D01*
X0268500Y0021000D01*
X0271000Y0018500D01*
X0261000Y0018500D02*
X0261000Y0013500D01*
X0258500Y0011000D01*
X0253500Y0011000D01*
X0251000Y0013500D01*
X0251000Y0018500D01*
X0253500Y0021000D01*
X0258500Y0021000D01*
X0261000Y0018500D01*
X0251000Y0018500D02*
X0251000Y0013500D01*
X0248500Y0011000D01*
X0243500Y0011000D01*
X0241000Y0013500D01*
X0241000Y0018500D01*
X0243500Y0021000D01*
X0248500Y0021000D01*
X0251000Y0018500D01*
X0241000Y0018500D02*
X0241000Y0013500D01*
X0238500Y0011000D01*
X0233500Y0011000D01*
X0231000Y0013500D01*
X0231000Y0018500D01*
X0233500Y0021000D01*
X0238500Y0021000D01*
X0241000Y0018500D01*
X0231000Y0018500D02*
X0231000Y0013500D01*
X0228500Y0011000D01*
X0223500Y0011000D01*
X0221000Y0013500D01*
X0221000Y0018500D01*
X0223500Y0021000D01*
X0228500Y0021000D01*
X0231000Y0018500D01*
X0221000Y0018500D02*
X0221000Y0013500D01*
X0218500Y0011000D01*
X0213500Y0011000D01*
X0211000Y0013500D01*
X0211000Y0018500D01*
X0213500Y0021000D01*
X0218500Y0021000D01*
X0221000Y0018500D01*
X0181000Y0018500D02*
X0181000Y0013500D01*
X0178500Y0011000D01*
X0173500Y0011000D01*
X0171000Y0013500D01*
X0171000Y0018500D01*
X0173500Y0021000D01*
X0178500Y0021000D01*
X0181000Y0018500D01*
X0161000Y0018500D02*
X0161000Y0013500D01*
X0158500Y0011000D01*
X0153500Y0011000D01*
X0151000Y0013500D01*
X0151000Y0018500D01*
X0153500Y0021000D01*
X0158500Y0021000D01*
X0161000Y0018500D01*
X0121000Y0018500D02*
X0121000Y0013500D01*
X0118500Y0011000D01*
X0113500Y0011000D01*
X0111000Y0013500D01*
X0111000Y0018500D01*
X0113500Y0021000D01*
X0118500Y0021000D01*
X0121000Y0018500D01*
X0111000Y0018500D02*
X0111000Y0013500D01*
X0108500Y0011000D01*
X0103500Y0011000D01*
X0101000Y0013500D01*
X0101000Y0018500D01*
X0103500Y0021000D01*
X0108500Y0021000D01*
X0111000Y0018500D01*
X0101000Y0018500D02*
X0101000Y0013500D01*
X0098500Y0011000D01*
X0093500Y0011000D01*
X0091000Y0013500D01*
X0091000Y0018500D01*
X0093500Y0021000D01*
X0098500Y0021000D01*
X0101000Y0018500D01*
D13*
X0105998Y0021200D02*
X0105998Y0024269D01*
X0105998Y0025804D02*
X0105231Y0027339D01*
X0105231Y0028106D01*
X0105998Y0028873D01*
X0107533Y0028873D01*
X0108300Y0028106D01*
X0108300Y0026571D01*
X0107533Y0025804D01*
X0105998Y0025804D02*
X0103696Y0025804D01*
X0103696Y0028873D01*
X0103696Y0030408D02*
X0106765Y0030408D01*
X0108300Y0031942D01*
X0106765Y0033477D01*
X0103696Y0033477D01*
X0098300Y0032710D02*
X0098300Y0031175D01*
X0097533Y0030408D01*
X0096765Y0030408D01*
X0095998Y0031175D01*
X0095998Y0032710D01*
X0096765Y0033477D01*
X0097533Y0033477D01*
X0098300Y0032710D01*
X0095998Y0032710D02*
X0095231Y0033477D01*
X0094463Y0033477D01*
X0093696Y0032710D01*
X0093696Y0031175D01*
X0094463Y0030408D01*
X0095231Y0030408D01*
X0095998Y0031175D01*
X0095231Y0028873D02*
X0094463Y0028873D01*
X0093696Y0028106D01*
X0093696Y0026571D01*
X0094463Y0025804D01*
X0095998Y0024269D02*
X0095998Y0021200D01*
X0094463Y0022735D02*
X0097533Y0022735D01*
X0098300Y0025804D02*
X0095231Y0028873D01*
X0098300Y0028873D02*
X0098300Y0025804D01*
X0104463Y0022735D02*
X0107533Y0022735D01*
X0114463Y0022735D02*
X0117533Y0022735D01*
X0115998Y0021200D02*
X0115998Y0024269D01*
X0114463Y0025804D02*
X0113696Y0026571D01*
X0113696Y0028106D01*
X0114463Y0028873D01*
X0117533Y0025804D01*
X0118300Y0026571D01*
X0118300Y0028106D01*
X0117533Y0028873D01*
X0114463Y0028873D01*
X0113696Y0030408D02*
X0116765Y0030408D01*
X0118300Y0031942D01*
X0116765Y0033477D01*
X0113696Y0033477D01*
X0114463Y0025804D02*
X0117533Y0025804D01*
X0098300Y0036546D02*
X0096765Y0038081D01*
X0093696Y0038081D01*
X0093696Y0035012D02*
X0096765Y0035012D01*
X0098300Y0036546D01*
X0153696Y0037512D02*
X0153696Y0039814D01*
X0154463Y0040581D01*
X0155231Y0040581D01*
X0155998Y0039814D01*
X0155998Y0037512D01*
X0155998Y0035977D02*
X0155998Y0032908D01*
X0155231Y0032908D02*
X0153696Y0034442D01*
X0155231Y0035977D01*
X0158300Y0035977D01*
X0158300Y0037512D02*
X0158300Y0039814D01*
X0157533Y0040581D01*
X0156765Y0040581D01*
X0155998Y0039814D01*
X0153696Y0042116D02*
X0158300Y0042116D01*
X0158300Y0045185D01*
X0158300Y0046720D02*
X0158300Y0049789D01*
X0155998Y0048254D02*
X0155998Y0046720D01*
X0153696Y0046720D02*
X0153696Y0049789D01*
X0153696Y0046720D02*
X0158300Y0046720D01*
X0158300Y0037512D02*
X0153696Y0037512D01*
X0155231Y0032908D02*
X0158300Y0032908D01*
X0158300Y0031373D02*
X0153696Y0031373D01*
X0153696Y0028304D02*
X0158300Y0031373D01*
X0158300Y0028304D02*
X0153696Y0028304D01*
X0153696Y0026769D02*
X0153696Y0023700D01*
X0158300Y0023700D01*
X0158300Y0026769D01*
X0155998Y0025235D02*
X0155998Y0023700D01*
X0173696Y0026571D02*
X0174463Y0025804D01*
X0177533Y0025804D01*
X0178300Y0026571D01*
X0178300Y0028106D01*
X0177533Y0028873D01*
X0177533Y0030408D02*
X0178300Y0031175D01*
X0178300Y0032710D01*
X0177533Y0033477D01*
X0176765Y0033477D01*
X0175998Y0032710D01*
X0175998Y0031175D01*
X0175231Y0030408D01*
X0174463Y0030408D01*
X0173696Y0031175D01*
X0173696Y0032710D01*
X0174463Y0033477D01*
X0174463Y0028873D02*
X0173696Y0028106D01*
X0173696Y0026571D01*
X0174463Y0024269D02*
X0177533Y0021200D01*
X0177533Y0022735D02*
X0174463Y0022735D01*
X0174463Y0021200D02*
X0177533Y0024269D01*
X0175998Y0024269D02*
X0175998Y0021200D01*
X0213696Y0023700D02*
X0215231Y0025235D01*
X0213696Y0026769D01*
X0218300Y0026769D01*
X0217533Y0028304D02*
X0218300Y0029071D01*
X0218300Y0030606D01*
X0217533Y0031373D01*
X0214463Y0031373D01*
X0213696Y0030606D01*
X0213696Y0029071D01*
X0214463Y0028304D01*
X0217533Y0028304D01*
X0218300Y0023700D02*
X0213696Y0023700D01*
X0223696Y0024467D02*
X0224463Y0023700D01*
X0225231Y0023700D01*
X0225998Y0024467D01*
X0225998Y0026002D01*
X0226765Y0026769D01*
X0227533Y0026769D01*
X0228300Y0026002D01*
X0228300Y0024467D01*
X0227533Y0023700D01*
X0223696Y0024467D02*
X0223696Y0026002D01*
X0224463Y0026769D01*
X0224463Y0028304D02*
X0227533Y0028304D01*
X0228300Y0029071D01*
X0228300Y0030606D01*
X0227533Y0031373D01*
X0228300Y0032908D02*
X0223696Y0032908D01*
X0224463Y0031373D02*
X0223696Y0030606D01*
X0223696Y0029071D01*
X0224463Y0028304D01*
X0226765Y0032908D02*
X0223696Y0035977D01*
X0225998Y0033675D02*
X0228300Y0035977D01*
X0233696Y0030606D02*
X0235998Y0028304D01*
X0235998Y0031373D01*
X0238300Y0030606D02*
X0233696Y0030606D01*
X0235231Y0026769D02*
X0238300Y0026769D01*
X0235998Y0026769D02*
X0235998Y0023700D01*
X0235231Y0023700D02*
X0233696Y0025235D01*
X0235231Y0026769D01*
X0235231Y0023700D02*
X0238300Y0023700D01*
X0243696Y0025235D02*
X0245231Y0026769D01*
X0248300Y0026769D01*
X0247533Y0028304D02*
X0248300Y0029071D01*
X0248300Y0030606D01*
X0247533Y0031373D01*
X0246765Y0031373D01*
X0245998Y0030606D01*
X0245998Y0029839D01*
X0245998Y0030606D02*
X0245231Y0031373D01*
X0244463Y0031373D01*
X0243696Y0030606D01*
X0243696Y0029071D01*
X0244463Y0028304D01*
X0245998Y0026769D02*
X0245998Y0023700D01*
X0245231Y0023700D02*
X0248300Y0023700D01*
X0245231Y0023700D02*
X0243696Y0025235D01*
X0253696Y0025235D02*
X0255231Y0026769D01*
X0258300Y0026769D01*
X0258300Y0028304D02*
X0255231Y0031373D01*
X0254463Y0031373D01*
X0253696Y0030606D01*
X0253696Y0029071D01*
X0254463Y0028304D01*
X0255998Y0026769D02*
X0255998Y0023700D01*
X0255231Y0023700D02*
X0253696Y0025235D01*
X0255231Y0023700D02*
X0258300Y0023700D01*
X0258300Y0028304D02*
X0258300Y0031373D01*
X0263696Y0029839D02*
X0268300Y0029839D01*
X0268300Y0031373D02*
X0268300Y0028304D01*
X0268300Y0026769D02*
X0265231Y0026769D01*
X0263696Y0025235D01*
X0265231Y0023700D01*
X0268300Y0023700D01*
X0265998Y0023700D02*
X0265998Y0026769D01*
X0265231Y0028304D02*
X0263696Y0029839D01*
X0273696Y0030606D02*
X0274463Y0031373D01*
X0277533Y0028304D01*
X0278300Y0029071D01*
X0278300Y0030606D01*
X0277533Y0031373D01*
X0274463Y0031373D01*
X0273696Y0030606D02*
X0273696Y0029071D01*
X0274463Y0028304D01*
X0277533Y0028304D01*
X0278300Y0026769D02*
X0275231Y0026769D01*
X0273696Y0025235D01*
X0275231Y0023700D01*
X0278300Y0023700D01*
X0275998Y0023700D02*
X0275998Y0026769D01*
X0218300Y0033675D02*
X0217533Y0032908D01*
X0218300Y0033675D02*
X0218300Y0035210D01*
X0217533Y0035977D01*
X0216765Y0035977D01*
X0215998Y0035210D01*
X0215998Y0033675D01*
X0215231Y0032908D01*
X0214463Y0032908D01*
X0213696Y0033675D01*
X0213696Y0035210D01*
X0214463Y0035977D01*
X0213696Y0037512D02*
X0213696Y0039046D01*
X0213696Y0038279D02*
X0218300Y0038279D01*
X0218300Y0037512D02*
X0218300Y0039046D01*
X0179022Y0078200D02*
X0176720Y0078200D01*
X0176720Y0082804D01*
X0179022Y0082804D01*
X0179789Y0082037D01*
X0179789Y0078967D01*
X0179022Y0078200D01*
X0175185Y0080502D02*
X0172116Y0080502D01*
X0174418Y0082804D01*
X0174418Y0078200D01*
X0170581Y0078200D02*
X0167512Y0078200D01*
X0170581Y0081269D01*
X0170581Y0082037D01*
X0169814Y0082804D01*
X0168279Y0082804D01*
X0167512Y0082037D01*
X0165977Y0082037D02*
X0165210Y0082804D01*
X0163675Y0082804D01*
X0162908Y0082037D01*
X0161373Y0082804D02*
X0161373Y0078200D01*
X0162908Y0078967D02*
X0163675Y0078200D01*
X0165210Y0078200D01*
X0165977Y0078967D01*
X0165977Y0079735D01*
X0165210Y0080502D01*
X0164442Y0080502D01*
X0165210Y0080502D02*
X0165977Y0081269D01*
X0165977Y0082037D01*
X0161373Y0082804D02*
X0159839Y0081269D01*
X0158304Y0082804D01*
X0158304Y0078200D01*
X0156769Y0078200D02*
X0153700Y0078200D01*
X0153700Y0082804D01*
X0143300Y0108700D02*
X0143300Y0111769D01*
X0143300Y0110235D02*
X0138696Y0110235D01*
X0140231Y0108700D01*
X0139463Y0113304D02*
X0138696Y0114071D01*
X0138696Y0115606D01*
X0139463Y0116373D01*
X0142533Y0113304D01*
X0143300Y0114071D01*
X0143300Y0115606D01*
X0142533Y0116373D01*
X0139463Y0116373D01*
X0138696Y0117908D02*
X0143300Y0117908D01*
X0141765Y0117908D02*
X0138696Y0120977D01*
X0139463Y0123700D02*
X0138696Y0124467D01*
X0138696Y0126002D01*
X0139463Y0126769D01*
X0140231Y0126769D01*
X0140998Y0126002D01*
X0141765Y0126769D01*
X0142533Y0126769D01*
X0143300Y0126002D01*
X0143300Y0124467D01*
X0142533Y0123700D01*
X0140998Y0125235D02*
X0140998Y0126002D01*
X0140231Y0128304D02*
X0140998Y0129071D01*
X0140998Y0131373D01*
X0139463Y0131373D02*
X0138696Y0130606D01*
X0138696Y0129071D01*
X0139463Y0128304D01*
X0140231Y0128304D01*
X0142533Y0128304D02*
X0143300Y0129071D01*
X0143300Y0130606D01*
X0142533Y0131373D01*
X0139463Y0131373D01*
X0138696Y0132908D02*
X0143300Y0132908D01*
X0141765Y0132908D02*
X0138696Y0135977D01*
X0140998Y0133675D02*
X0143300Y0135977D01*
X0143300Y0120977D02*
X0140998Y0118675D01*
X0142533Y0113304D02*
X0139463Y0113304D01*
X0211196Y0157735D02*
X0215800Y0157735D01*
X0215800Y0159269D02*
X0215800Y0156200D01*
X0212731Y0156200D02*
X0211196Y0157735D01*
X0211196Y0160804D02*
X0215800Y0160804D01*
X0214265Y0160804D02*
X0211196Y0163873D01*
X0213498Y0161571D02*
X0215800Y0163873D01*
X0215606Y0248700D02*
X0214071Y0248700D01*
X0213304Y0249467D01*
X0216373Y0252537D01*
X0216373Y0249467D01*
X0215606Y0248700D01*
X0217908Y0248700D02*
X0217908Y0253304D01*
X0216373Y0252537D02*
X0215606Y0253304D01*
X0214071Y0253304D01*
X0213304Y0252537D01*
X0213304Y0249467D01*
X0211769Y0248700D02*
X0208700Y0248700D01*
X0210235Y0248700D02*
X0210235Y0253304D01*
X0208700Y0251769D01*
X0205977Y0253304D02*
X0202908Y0250235D01*
X0203675Y0251002D02*
X0205977Y0248700D01*
X0202908Y0248700D02*
X0202908Y0253304D01*
X0201373Y0252537D02*
X0198304Y0249467D01*
X0199071Y0248700D01*
X0200606Y0248700D01*
X0201373Y0249467D01*
X0201373Y0252537D01*
X0200606Y0253304D01*
X0199071Y0253304D01*
X0198304Y0252537D01*
X0198304Y0249467D01*
X0196769Y0248700D02*
X0193700Y0248700D01*
X0195235Y0248700D02*
X0195235Y0253304D01*
X0193700Y0251769D01*
X0190977Y0253304D02*
X0187908Y0250235D01*
X0188675Y0251002D02*
X0190977Y0248700D01*
X0187908Y0248700D02*
X0187908Y0253304D01*
X0186373Y0252537D02*
X0183304Y0249467D01*
X0184071Y0248700D01*
X0185606Y0248700D01*
X0186373Y0249467D01*
X0186373Y0252537D01*
X0185606Y0253304D01*
X0184071Y0253304D01*
X0183304Y0252537D01*
X0183304Y0249467D01*
X0181769Y0248700D02*
X0178700Y0248700D01*
X0180235Y0248700D02*
X0180235Y0253304D01*
X0178700Y0251769D01*
X0175977Y0253304D02*
X0172908Y0250235D01*
X0173675Y0251002D02*
X0175977Y0248700D01*
X0172908Y0248700D02*
X0172908Y0253304D01*
X0171373Y0252537D02*
X0168304Y0249467D01*
X0169071Y0248700D01*
X0170606Y0248700D01*
X0171373Y0249467D01*
X0171373Y0252537D01*
X0170606Y0253304D01*
X0169071Y0253304D01*
X0168304Y0252537D01*
X0168304Y0249467D01*
X0166769Y0248700D02*
X0163700Y0248700D01*
X0165235Y0248700D02*
X0165235Y0253304D01*
X0163700Y0251769D01*
X0160977Y0253304D02*
X0157908Y0250235D01*
X0158675Y0251002D02*
X0160977Y0248700D01*
X0157908Y0248700D02*
X0157908Y0253304D01*
X0156373Y0252537D02*
X0153304Y0249467D01*
X0154071Y0248700D01*
X0155606Y0248700D01*
X0156373Y0249467D01*
X0156373Y0252537D01*
X0155606Y0253304D01*
X0154071Y0253304D01*
X0153304Y0252537D01*
X0153304Y0249467D01*
X0151769Y0248700D02*
X0148700Y0248700D01*
X0150235Y0248700D02*
X0150235Y0253304D01*
X0148700Y0251769D01*
X0145977Y0253304D02*
X0142908Y0250235D01*
X0143675Y0251002D02*
X0145977Y0248700D01*
X0142908Y0248700D02*
X0142908Y0253304D01*
X0141373Y0252537D02*
X0141373Y0249467D01*
X0140606Y0248700D01*
X0139071Y0248700D01*
X0138304Y0249467D01*
X0141373Y0252537D01*
X0140606Y0253304D01*
X0139071Y0253304D01*
X0138304Y0252537D01*
X0138304Y0249467D01*
X0136769Y0248700D02*
X0133700Y0248700D01*
X0135235Y0248700D02*
X0135235Y0253304D01*
X0133700Y0251769D01*
X0130977Y0253304D02*
X0127908Y0250235D01*
X0128675Y0251002D02*
X0130977Y0248700D01*
X0127908Y0248700D02*
X0127908Y0253304D01*
X0126373Y0252537D02*
X0123304Y0249467D01*
X0124071Y0248700D01*
X0125606Y0248700D01*
X0126373Y0249467D01*
X0126373Y0252537D01*
X0125606Y0253304D01*
X0124071Y0253304D01*
X0123304Y0252537D01*
X0123304Y0249467D01*
X0121769Y0248700D02*
X0118700Y0248700D01*
X0120235Y0248700D02*
X0120235Y0253304D01*
X0118700Y0251769D01*
X0115977Y0253304D02*
X0112908Y0250235D01*
X0113675Y0251002D02*
X0115977Y0248700D01*
X0112908Y0248700D02*
X0112908Y0253304D01*
X0111373Y0252537D02*
X0108304Y0249467D01*
X0109071Y0248700D01*
X0110606Y0248700D01*
X0111373Y0249467D01*
X0111373Y0252537D01*
X0110606Y0253304D01*
X0109071Y0253304D01*
X0108304Y0252537D01*
X0108304Y0249467D01*
X0106769Y0248700D02*
X0103700Y0248700D01*
X0105235Y0248700D02*
X0105235Y0253304D01*
X0103700Y0251769D01*
X0100977Y0253304D02*
X0097908Y0250235D01*
X0098675Y0251002D02*
X0100977Y0248700D01*
X0097908Y0248700D02*
X0097908Y0253304D01*
X0096373Y0252537D02*
X0093304Y0249467D01*
X0094071Y0248700D01*
X0095606Y0248700D01*
X0096373Y0249467D01*
X0096373Y0252537D01*
X0095606Y0253304D01*
X0094071Y0253304D01*
X0093304Y0252537D01*
X0093304Y0249467D01*
X0091769Y0248700D02*
X0088700Y0248700D01*
X0090235Y0248700D02*
X0090235Y0253304D01*
X0088700Y0251769D01*
X0085977Y0253304D02*
X0082908Y0250235D01*
X0083675Y0251002D02*
X0085977Y0248700D01*
X0082908Y0248700D02*
X0082908Y0253304D01*
X0081373Y0252537D02*
X0078304Y0249467D01*
X0079071Y0248700D01*
X0080606Y0248700D01*
X0081373Y0249467D01*
X0081373Y0252537D01*
X0080606Y0253304D01*
X0079071Y0253304D01*
X0078304Y0252537D01*
X0078304Y0249467D01*
X0076769Y0248700D02*
X0073700Y0248700D01*
X0075235Y0248700D02*
X0075235Y0253304D01*
X0073700Y0251769D01*
X0070977Y0253304D02*
X0067908Y0250235D01*
X0068675Y0251002D02*
X0070977Y0248700D01*
X0067908Y0248700D02*
X0067908Y0253304D01*
X0066373Y0252537D02*
X0066373Y0249467D01*
X0065606Y0248700D01*
X0064071Y0248700D01*
X0063304Y0249467D01*
X0066373Y0252537D01*
X0065606Y0253304D01*
X0064071Y0253304D01*
X0063304Y0252537D01*
X0063304Y0249467D01*
X0061769Y0248700D02*
X0058700Y0248700D01*
X0060235Y0248700D02*
X0060235Y0253304D01*
X0058700Y0251769D01*
X0055977Y0253304D02*
X0052908Y0250235D01*
X0053675Y0251002D02*
X0055977Y0248700D01*
X0052908Y0248700D02*
X0052908Y0253304D01*
X0051373Y0252537D02*
X0048304Y0249467D01*
X0049071Y0248700D01*
X0050606Y0248700D01*
X0051373Y0249467D01*
X0051373Y0252537D01*
X0050606Y0253304D01*
X0049071Y0253304D01*
X0048304Y0252537D01*
X0048304Y0249467D01*
X0046769Y0248700D02*
X0043700Y0248700D01*
X0045235Y0248700D02*
X0045235Y0253304D01*
X0043700Y0251769D01*
X0040977Y0253304D02*
X0037908Y0250235D01*
X0038675Y0251002D02*
X0040977Y0248700D01*
X0037908Y0248700D02*
X0037908Y0253304D01*
X0036373Y0252537D02*
X0033304Y0249467D01*
X0034071Y0248700D01*
X0035606Y0248700D01*
X0036373Y0249467D01*
X0036373Y0252537D01*
X0035606Y0253304D01*
X0034071Y0253304D01*
X0033304Y0252537D01*
X0033304Y0249467D01*
X0031769Y0248700D02*
X0028700Y0248700D01*
X0030235Y0248700D02*
X0030235Y0253304D01*
X0028700Y0251769D01*
X0025977Y0253304D02*
X0022908Y0250235D01*
X0023675Y0251002D02*
X0025977Y0248700D01*
X0022908Y0248700D02*
X0022908Y0253304D01*
X0021373Y0252537D02*
X0018304Y0249467D01*
X0019071Y0248700D01*
X0020606Y0248700D01*
X0021373Y0249467D01*
X0021373Y0252537D01*
X0020606Y0253304D01*
X0019071Y0253304D01*
X0018304Y0252537D01*
X0018304Y0249467D01*
X0016769Y0248700D02*
X0013700Y0248700D01*
X0015235Y0248700D02*
X0015235Y0253304D01*
X0013700Y0251769D01*
X0013700Y0278700D02*
X0016769Y0278700D01*
X0015235Y0278700D02*
X0015235Y0283304D01*
X0013700Y0281769D01*
X0018304Y0283304D02*
X0018304Y0278700D01*
X0021373Y0278700D02*
X0021373Y0283304D01*
X0019839Y0281769D01*
X0018304Y0283304D01*
X0028700Y0281769D02*
X0030235Y0283304D01*
X0030235Y0278700D01*
X0031769Y0278700D02*
X0028700Y0278700D01*
X0033304Y0278700D02*
X0033304Y0283304D01*
X0034839Y0281769D01*
X0036373Y0283304D01*
X0036373Y0278700D01*
X0043700Y0278700D02*
X0046769Y0278700D01*
X0045235Y0278700D02*
X0045235Y0283304D01*
X0043700Y0281769D01*
X0048304Y0283304D02*
X0048304Y0278700D01*
X0051373Y0278700D02*
X0051373Y0283304D01*
X0049839Y0281769D01*
X0048304Y0283304D01*
X0058700Y0281769D02*
X0060235Y0283304D01*
X0060235Y0278700D01*
X0061769Y0278700D02*
X0058700Y0278700D01*
X0063304Y0278700D02*
X0063304Y0283304D01*
X0064839Y0281769D01*
X0066373Y0283304D01*
X0066373Y0278700D01*
X0073700Y0278700D02*
X0076769Y0278700D01*
X0075235Y0278700D02*
X0075235Y0283304D01*
X0073700Y0281769D01*
X0078304Y0283304D02*
X0078304Y0278700D01*
X0081373Y0278700D02*
X0081373Y0283304D01*
X0079839Y0281769D01*
X0078304Y0283304D01*
X0088700Y0281769D02*
X0090235Y0283304D01*
X0090235Y0278700D01*
X0091769Y0278700D02*
X0088700Y0278700D01*
X0093304Y0278700D02*
X0093304Y0283304D01*
X0094839Y0281769D01*
X0096373Y0283304D01*
X0096373Y0278700D01*
X0103700Y0278700D02*
X0106769Y0278700D01*
X0105235Y0278700D02*
X0105235Y0283304D01*
X0103700Y0281769D01*
X0108304Y0283304D02*
X0108304Y0278700D01*
X0111373Y0278700D02*
X0111373Y0283304D01*
X0109839Y0281769D01*
X0108304Y0283304D01*
X0118700Y0281769D02*
X0120235Y0283304D01*
X0120235Y0278700D01*
X0121769Y0278700D02*
X0118700Y0278700D01*
X0123304Y0278700D02*
X0123304Y0283304D01*
X0124839Y0281769D01*
X0126373Y0283304D01*
X0126373Y0278700D01*
X0133700Y0278700D02*
X0136769Y0278700D01*
X0135235Y0278700D02*
X0135235Y0283304D01*
X0133700Y0281769D01*
X0138304Y0283304D02*
X0138304Y0278700D01*
X0141373Y0278700D02*
X0141373Y0283304D01*
X0139839Y0281769D01*
X0138304Y0283304D01*
X0148700Y0281769D02*
X0150235Y0283304D01*
X0150235Y0278700D01*
X0151769Y0278700D02*
X0148700Y0278700D01*
X0153304Y0278700D02*
X0153304Y0283304D01*
X0154839Y0281769D01*
X0156373Y0283304D01*
X0156373Y0278700D01*
X0163700Y0278700D02*
X0166769Y0278700D01*
X0165235Y0278700D02*
X0165235Y0283304D01*
X0163700Y0281769D01*
X0168304Y0283304D02*
X0168304Y0278700D01*
X0171373Y0278700D02*
X0171373Y0283304D01*
X0169839Y0281769D01*
X0168304Y0283304D01*
X0178700Y0281769D02*
X0180235Y0283304D01*
X0180235Y0278700D01*
X0181769Y0278700D02*
X0178700Y0278700D01*
X0183304Y0278700D02*
X0183304Y0283304D01*
X0184839Y0281769D01*
X0186373Y0283304D01*
X0186373Y0278700D01*
X0193700Y0278700D02*
X0196769Y0278700D01*
X0195235Y0278700D02*
X0195235Y0283304D01*
X0193700Y0281769D01*
X0198304Y0283304D02*
X0198304Y0278700D01*
X0201373Y0278700D02*
X0201373Y0283304D01*
X0199839Y0281769D01*
X0198304Y0283304D01*
X0208700Y0281769D02*
X0210235Y0283304D01*
X0210235Y0278700D01*
X0211769Y0278700D02*
X0208700Y0278700D01*
X0213304Y0278700D02*
X0213304Y0283304D01*
X0214839Y0281769D01*
X0216373Y0283304D01*
X0216373Y0278700D01*
X0223700Y0278700D02*
X0226769Y0278700D01*
X0225235Y0278700D02*
X0225235Y0283304D01*
X0223700Y0281769D01*
X0228304Y0283304D02*
X0228304Y0278700D01*
X0231373Y0278700D02*
X0231373Y0283304D01*
X0229839Y0281769D01*
X0228304Y0283304D01*
X0238700Y0281769D02*
X0240235Y0283304D01*
X0240235Y0278700D01*
X0241769Y0278700D02*
X0238700Y0278700D01*
X0243304Y0278700D02*
X0243304Y0283304D01*
X0244839Y0281769D01*
X0246373Y0283304D01*
X0246373Y0278700D01*
X0253700Y0278700D02*
X0256769Y0278700D01*
X0255235Y0278700D02*
X0255235Y0283304D01*
X0253700Y0281769D01*
X0258304Y0283304D02*
X0258304Y0278700D01*
X0261373Y0278700D02*
X0261373Y0283304D01*
X0259839Y0281769D01*
X0258304Y0283304D01*
X0268700Y0281769D02*
X0270235Y0283304D01*
X0270235Y0278700D01*
X0271769Y0278700D02*
X0268700Y0278700D01*
X0273304Y0278700D02*
X0273304Y0283304D01*
X0274839Y0281769D01*
X0276373Y0283304D01*
X0276373Y0278700D01*
X0283700Y0278700D02*
X0286769Y0278700D01*
X0285235Y0278700D02*
X0285235Y0283304D01*
X0283700Y0281769D01*
X0288304Y0283304D02*
X0288304Y0278700D01*
X0291373Y0278700D02*
X0291373Y0283304D01*
X0289839Y0281769D01*
X0288304Y0283304D01*
X0298700Y0281769D02*
X0300235Y0283304D01*
X0300235Y0278700D01*
X0301769Y0278700D02*
X0298700Y0278700D01*
X0303304Y0278700D02*
X0303304Y0283304D01*
X0304839Y0281769D01*
X0306373Y0283304D01*
X0306373Y0278700D01*
X0313700Y0278700D02*
X0316769Y0278700D01*
X0315235Y0278700D02*
X0315235Y0283304D01*
X0313700Y0281769D01*
X0318304Y0283304D02*
X0318304Y0278700D01*
X0321373Y0278700D02*
X0321373Y0283304D01*
X0319839Y0281769D01*
X0318304Y0283304D01*
X0328700Y0281769D02*
X0330235Y0283304D01*
X0330235Y0278700D01*
X0331769Y0278700D02*
X0328700Y0278700D01*
X0333304Y0278700D02*
X0333304Y0283304D01*
X0334839Y0281769D01*
X0336373Y0283304D01*
X0336373Y0278700D01*
X0343700Y0278700D02*
X0346769Y0278700D01*
X0345235Y0278700D02*
X0345235Y0283304D01*
X0343700Y0281769D01*
X0348304Y0283304D02*
X0348304Y0278700D01*
X0351373Y0278700D02*
X0351373Y0283304D01*
X0349839Y0281769D01*
X0348304Y0283304D01*
X0358700Y0281769D02*
X0360235Y0283304D01*
X0360235Y0278700D01*
X0361769Y0278700D02*
X0358700Y0278700D01*
X0363304Y0278700D02*
X0363304Y0283304D01*
X0364839Y0281769D01*
X0366373Y0283304D01*
X0366373Y0278700D01*
X0373700Y0278700D02*
X0376769Y0278700D01*
X0375235Y0278700D02*
X0375235Y0283304D01*
X0373700Y0281769D01*
X0378304Y0283304D02*
X0378304Y0278700D01*
X0381373Y0278700D02*
X0381373Y0283304D01*
X0379839Y0281769D01*
X0378304Y0283304D01*
X0370606Y0308700D02*
X0369071Y0308700D01*
X0368304Y0309467D01*
X0368304Y0311002D02*
X0369839Y0311769D01*
X0370606Y0311769D01*
X0371373Y0311002D01*
X0371373Y0309467D01*
X0370606Y0308700D01*
X0368304Y0311002D02*
X0368304Y0313304D01*
X0371373Y0313304D01*
X0366769Y0312537D02*
X0366002Y0313304D01*
X0364467Y0313304D01*
X0363700Y0312537D01*
X0366769Y0312537D02*
X0366769Y0311769D01*
X0363700Y0308700D01*
X0366769Y0308700D01*
X0367908Y0253304D02*
X0367908Y0248700D01*
X0367908Y0250235D02*
X0370977Y0253304D01*
X0373700Y0251769D02*
X0375235Y0253304D01*
X0375235Y0248700D01*
X0376769Y0248700D02*
X0373700Y0248700D01*
X0370977Y0248700D02*
X0368675Y0251002D01*
X0366373Y0252537D02*
X0366373Y0249467D01*
X0365606Y0248700D01*
X0364071Y0248700D01*
X0363304Y0249467D01*
X0366373Y0252537D01*
X0365606Y0253304D01*
X0364071Y0253304D01*
X0363304Y0252537D01*
X0363304Y0249467D01*
X0361769Y0248700D02*
X0358700Y0248700D01*
X0360235Y0248700D02*
X0360235Y0253304D01*
X0358700Y0251769D01*
X0355977Y0253304D02*
X0352908Y0250235D01*
X0353675Y0251002D02*
X0355977Y0248700D01*
X0352908Y0248700D02*
X0352908Y0253304D01*
X0351373Y0252537D02*
X0348304Y0249467D01*
X0349071Y0248700D01*
X0350606Y0248700D01*
X0351373Y0249467D01*
X0351373Y0252537D01*
X0350606Y0253304D01*
X0349071Y0253304D01*
X0348304Y0252537D01*
X0348304Y0249467D01*
X0346769Y0248700D02*
X0343700Y0248700D01*
X0345235Y0248700D02*
X0345235Y0253304D01*
X0343700Y0251769D01*
X0340977Y0253304D02*
X0337908Y0250235D01*
X0338675Y0251002D02*
X0340977Y0248700D01*
X0337908Y0248700D02*
X0337908Y0253304D01*
X0336373Y0252537D02*
X0333304Y0249467D01*
X0334071Y0248700D01*
X0335606Y0248700D01*
X0336373Y0249467D01*
X0336373Y0252537D01*
X0335606Y0253304D01*
X0334071Y0253304D01*
X0333304Y0252537D01*
X0333304Y0249467D01*
X0331769Y0248700D02*
X0328700Y0248700D01*
X0330235Y0248700D02*
X0330235Y0253304D01*
X0328700Y0251769D01*
X0325977Y0253304D02*
X0322908Y0250235D01*
X0323675Y0251002D02*
X0325977Y0248700D01*
X0322908Y0248700D02*
X0322908Y0253304D01*
X0321373Y0252537D02*
X0318304Y0249467D01*
X0319071Y0248700D01*
X0320606Y0248700D01*
X0321373Y0249467D01*
X0321373Y0252537D01*
X0320606Y0253304D01*
X0319071Y0253304D01*
X0318304Y0252537D01*
X0318304Y0249467D01*
X0316769Y0248700D02*
X0313700Y0248700D01*
X0315235Y0248700D02*
X0315235Y0253304D01*
X0313700Y0251769D01*
X0310977Y0253304D02*
X0307908Y0250235D01*
X0308675Y0251002D02*
X0310977Y0248700D01*
X0307908Y0248700D02*
X0307908Y0253304D01*
X0306373Y0252537D02*
X0303304Y0249467D01*
X0304071Y0248700D01*
X0305606Y0248700D01*
X0306373Y0249467D01*
X0306373Y0252537D01*
X0305606Y0253304D01*
X0304071Y0253304D01*
X0303304Y0252537D01*
X0303304Y0249467D01*
X0301769Y0248700D02*
X0298700Y0248700D01*
X0300235Y0248700D02*
X0300235Y0253304D01*
X0298700Y0251769D01*
X0295977Y0253304D02*
X0292908Y0250235D01*
X0293675Y0251002D02*
X0295977Y0248700D01*
X0292908Y0248700D02*
X0292908Y0253304D01*
X0291373Y0252537D02*
X0291373Y0249467D01*
X0290606Y0248700D01*
X0289071Y0248700D01*
X0288304Y0249467D01*
X0291373Y0252537D01*
X0290606Y0253304D01*
X0289071Y0253304D01*
X0288304Y0252537D01*
X0288304Y0249467D01*
X0286769Y0248700D02*
X0283700Y0248700D01*
X0285235Y0248700D02*
X0285235Y0253304D01*
X0283700Y0251769D01*
X0280977Y0253304D02*
X0277908Y0250235D01*
X0278675Y0251002D02*
X0280977Y0248700D01*
X0277908Y0248700D02*
X0277908Y0253304D01*
X0276373Y0252537D02*
X0273304Y0249467D01*
X0274071Y0248700D01*
X0275606Y0248700D01*
X0276373Y0249467D01*
X0276373Y0252537D01*
X0275606Y0253304D01*
X0274071Y0253304D01*
X0273304Y0252537D01*
X0273304Y0249467D01*
X0271769Y0248700D02*
X0268700Y0248700D01*
X0270235Y0248700D02*
X0270235Y0253304D01*
X0268700Y0251769D01*
X0265977Y0253304D02*
X0262908Y0250235D01*
X0263675Y0251002D02*
X0265977Y0248700D01*
X0262908Y0248700D02*
X0262908Y0253304D01*
X0261373Y0252537D02*
X0258304Y0249467D01*
X0259071Y0248700D01*
X0260606Y0248700D01*
X0261373Y0249467D01*
X0261373Y0252537D01*
X0260606Y0253304D01*
X0259071Y0253304D01*
X0258304Y0252537D01*
X0258304Y0249467D01*
X0256769Y0248700D02*
X0253700Y0248700D01*
X0255235Y0248700D02*
X0255235Y0253304D01*
X0253700Y0251769D01*
X0250977Y0253304D02*
X0247908Y0250235D01*
X0248675Y0251002D02*
X0250977Y0248700D01*
X0247908Y0248700D02*
X0247908Y0253304D01*
X0246373Y0252537D02*
X0243304Y0249467D01*
X0244071Y0248700D01*
X0245606Y0248700D01*
X0246373Y0249467D01*
X0246373Y0252537D01*
X0245606Y0253304D01*
X0244071Y0253304D01*
X0243304Y0252537D01*
X0243304Y0249467D01*
X0241769Y0248700D02*
X0238700Y0248700D01*
X0240235Y0248700D02*
X0240235Y0253304D01*
X0238700Y0251769D01*
X0235977Y0253304D02*
X0232908Y0250235D01*
X0233675Y0251002D02*
X0235977Y0248700D01*
X0232908Y0248700D02*
X0232908Y0253304D01*
X0231373Y0252537D02*
X0228304Y0249467D01*
X0229071Y0248700D01*
X0230606Y0248700D01*
X0231373Y0249467D01*
X0231373Y0252537D01*
X0230606Y0253304D01*
X0229071Y0253304D01*
X0228304Y0252537D01*
X0228304Y0249467D01*
X0226769Y0248700D02*
X0223700Y0248700D01*
X0225235Y0248700D02*
X0225235Y0253304D01*
X0223700Y0251769D01*
X0220977Y0253304D02*
X0217908Y0250235D01*
X0218675Y0251002D02*
X0220977Y0248700D01*
X0246200Y0308700D02*
X0249269Y0308700D01*
X0247735Y0308700D02*
X0247735Y0313304D01*
X0246200Y0311769D01*
X0250804Y0311002D02*
X0250804Y0309467D01*
X0251571Y0308700D01*
X0253106Y0308700D01*
X0253873Y0309467D01*
X0253873Y0310235D01*
X0253106Y0311002D01*
X0250804Y0311002D01*
X0252339Y0312537D01*
X0253873Y0313304D01*
X0178873Y0308700D02*
X0175804Y0308700D01*
X0177339Y0308700D02*
X0177339Y0313304D01*
X0175804Y0311769D01*
X0174269Y0308700D02*
X0171200Y0308700D01*
X0172735Y0308700D02*
X0172735Y0313304D01*
X0171200Y0311769D01*
X0101769Y0310235D02*
X0101002Y0311002D01*
X0098700Y0311002D01*
X0098700Y0309467D01*
X0099467Y0308700D01*
X0101002Y0308700D01*
X0101769Y0309467D01*
X0101769Y0310235D01*
X0100235Y0312537D02*
X0098700Y0311002D01*
X0100235Y0312537D02*
X0101769Y0313304D01*
X0026769Y0308700D02*
X0023700Y0308700D01*
X0025235Y0308700D02*
X0025235Y0313304D01*
X0023700Y0311769D01*
X0378304Y0252537D02*
X0378304Y0249467D01*
X0381373Y0252537D01*
X0381373Y0249467D01*
X0380606Y0248700D01*
X0379071Y0248700D01*
X0378304Y0249467D01*
X0378304Y0252537D02*
X0379071Y0253304D01*
X0380606Y0253304D01*
X0381373Y0252537D01*
X0382908Y0253304D02*
X0382908Y0248700D01*
X0382908Y0250235D02*
X0385977Y0253304D01*
X0383675Y0251002D02*
X0385977Y0248700D01*
D14*
X0305415Y0191104D02*
X0305415Y0189003D01*
X0304364Y0187952D01*
X0301211Y0187952D01*
X0303313Y0187952D02*
X0305415Y0185850D01*
X0301211Y0185850D02*
X0301211Y0192155D01*
X0304364Y0192155D01*
X0305415Y0191104D01*
X0298969Y0192155D02*
X0298969Y0185850D01*
X0296867Y0187952D01*
X0294765Y0185850D01*
X0294765Y0192155D01*
X0292524Y0191104D02*
X0292524Y0189003D01*
X0291473Y0187952D01*
X0288320Y0187952D01*
X0288320Y0185850D02*
X0288320Y0192155D01*
X0291473Y0192155D01*
X0292524Y0191104D01*
X0286125Y0192155D02*
X0284023Y0192155D01*
X0285074Y0192155D02*
X0285074Y0185850D01*
X0284023Y0185850D02*
X0286125Y0185850D01*
X0281781Y0186901D02*
X0281781Y0187952D01*
X0280730Y0189003D01*
X0277577Y0189003D01*
X0277577Y0186901D01*
X0278628Y0185850D01*
X0280730Y0185850D01*
X0281781Y0186901D01*
X0279679Y0191104D02*
X0277577Y0189003D01*
X0279679Y0191104D02*
X0281781Y0192155D01*
X0275336Y0191104D02*
X0275336Y0186901D01*
X0274285Y0185850D01*
X0272183Y0185850D01*
X0271132Y0186901D01*
X0275336Y0191104D01*
X0274285Y0192155D01*
X0272183Y0192155D01*
X0271132Y0191104D01*
X0271132Y0186901D01*
X0268890Y0186901D02*
X0268890Y0189003D01*
X0267839Y0190054D01*
X0266788Y0190054D01*
X0264686Y0189003D01*
X0264686Y0192155D01*
X0268890Y0192155D01*
X0262445Y0192155D02*
X0258241Y0185850D01*
X0255999Y0186901D02*
X0255999Y0192155D01*
X0258241Y0192155D02*
X0262445Y0185850D01*
X0264686Y0186901D02*
X0265737Y0185850D01*
X0267839Y0185850D01*
X0268890Y0186901D01*
X0255999Y0186901D02*
X0254948Y0185850D01*
X0252846Y0185850D01*
X0251795Y0186901D01*
X0251795Y0192155D01*
X0249554Y0192155D02*
X0249554Y0185850D01*
X0245350Y0185850D02*
X0245350Y0192155D01*
X0247452Y0190054D01*
X0249554Y0192155D01*
X0155415Y0191104D02*
X0155415Y0189003D01*
X0154364Y0187952D01*
X0151211Y0187952D01*
X0153313Y0187952D02*
X0155415Y0185850D01*
X0151211Y0185850D02*
X0151211Y0192155D01*
X0154364Y0192155D01*
X0155415Y0191104D01*
X0148969Y0192155D02*
X0148969Y0185850D01*
X0146867Y0187952D01*
X0144765Y0185850D01*
X0144765Y0192155D01*
X0142524Y0191104D02*
X0142524Y0189003D01*
X0141473Y0187952D01*
X0138320Y0187952D01*
X0138320Y0185850D02*
X0138320Y0192155D01*
X0141473Y0192155D01*
X0142524Y0191104D01*
X0136125Y0192155D02*
X0134023Y0192155D01*
X0135074Y0192155D02*
X0135074Y0185850D01*
X0134023Y0185850D02*
X0136125Y0185850D01*
X0131781Y0186901D02*
X0131781Y0187952D01*
X0130730Y0189003D01*
X0127577Y0189003D01*
X0127577Y0186901D01*
X0128628Y0185850D01*
X0130730Y0185850D01*
X0131781Y0186901D01*
X0129679Y0191104D02*
X0127577Y0189003D01*
X0129679Y0191104D02*
X0131781Y0192155D01*
X0125336Y0191104D02*
X0125336Y0186901D01*
X0124285Y0185850D01*
X0122183Y0185850D01*
X0121132Y0186901D01*
X0125336Y0191104D01*
X0124285Y0192155D01*
X0122183Y0192155D01*
X0121132Y0191104D01*
X0121132Y0186901D01*
X0118890Y0186901D02*
X0117839Y0185850D01*
X0115737Y0185850D01*
X0114686Y0186901D01*
X0114686Y0189003D02*
X0116788Y0190054D01*
X0117839Y0190054D01*
X0118890Y0189003D01*
X0118890Y0186901D01*
X0114686Y0189003D02*
X0114686Y0192155D01*
X0118890Y0192155D01*
X0112445Y0192155D02*
X0108241Y0185850D01*
X0105999Y0186901D02*
X0105999Y0192155D01*
X0108241Y0192155D02*
X0112445Y0185850D01*
X0105999Y0186901D02*
X0104948Y0185850D01*
X0102846Y0185850D01*
X0101795Y0186901D01*
X0101795Y0192155D01*
X0099554Y0192155D02*
X0099554Y0185850D01*
X0095350Y0185850D02*
X0095350Y0192155D01*
X0097452Y0190054D01*
X0099554Y0192155D01*
D15*
X0348500Y0189700D02*
X0383500Y0189700D01*
X0383500Y0134700D02*
X0348500Y0134700D01*
D16*
X0352250Y0139250D02*
X0352250Y0140001D01*
X0355253Y0143003D01*
X0355253Y0143754D01*
X0352250Y0143754D01*
X0356854Y0141502D02*
X0359856Y0141502D01*
X0361458Y0143003D02*
X0362208Y0143754D01*
X0363710Y0143754D01*
X0364460Y0143003D01*
X0361458Y0140001D01*
X0362208Y0139250D01*
X0363710Y0139250D01*
X0364460Y0140001D01*
X0364460Y0143003D01*
X0366062Y0143003D02*
X0366812Y0143754D01*
X0368314Y0143754D01*
X0369064Y0143003D01*
X0366062Y0140001D01*
X0366812Y0139250D01*
X0368314Y0139250D01*
X0369064Y0140001D01*
X0369064Y0143003D01*
X0370666Y0143754D02*
X0372918Y0143754D01*
X0373668Y0143003D01*
X0373668Y0140001D01*
X0372918Y0139250D01*
X0370666Y0139250D01*
X0370666Y0143754D01*
X0366062Y0143003D02*
X0366062Y0140001D01*
X0361458Y0140001D02*
X0361458Y0143003D01*
X0359106Y0143754D02*
X0356854Y0141502D01*
X0359106Y0139250D02*
X0359106Y0143754D01*
X0359106Y0194250D02*
X0359106Y0198754D01*
X0356854Y0196502D01*
X0359856Y0196502D01*
X0361458Y0198003D02*
X0362208Y0198754D01*
X0363710Y0198754D01*
X0364460Y0198003D01*
X0361458Y0195001D01*
X0362208Y0194250D01*
X0363710Y0194250D01*
X0364460Y0195001D01*
X0364460Y0198003D01*
X0366062Y0198003D02*
X0366812Y0198754D01*
X0368314Y0198754D01*
X0369064Y0198003D01*
X0366062Y0195001D01*
X0366812Y0194250D01*
X0368314Y0194250D01*
X0369064Y0195001D01*
X0369064Y0198003D01*
X0370666Y0198754D02*
X0372918Y0198754D01*
X0373668Y0198003D01*
X0373668Y0195001D01*
X0372918Y0194250D01*
X0370666Y0194250D01*
X0370666Y0198754D01*
X0366062Y0198003D02*
X0366062Y0195001D01*
X0361458Y0195001D02*
X0361458Y0198003D01*
X0355253Y0198003D02*
X0352250Y0195001D01*
X0352250Y0194250D01*
X0352250Y0198754D02*
X0355253Y0198754D01*
X0355253Y0198003D01*
D17*
X0218362Y0060331D02*
X0213638Y0060331D01*
X0213638Y0051669D02*
X0218362Y0051669D01*
D18*
X0215016Y0058559D03*
M02*
