G75*
%MOIN*%
%OFA0B0*%
%FSLAX25Y25*%
%IPPOS*%
%LPD*%
%AMOC8*
5,1,8,0,0,1.08239X$1,22.5*
%
%ADD10C,0.00000*%
%ADD11OC8,0.06400*%
D10*
X0001000Y0001000D02*
X0001000Y0300961D01*
X0409701Y0300961D01*
X0409701Y0001000D01*
X0001000Y0001000D01*
D11*
X0011000Y0016000D03*
X0021000Y0016000D03*
X0031000Y0016000D03*
X0041000Y0016000D03*
X0051000Y0016000D03*
X0061000Y0016000D03*
X0071000Y0016000D03*
X0081000Y0016000D03*
X0091000Y0016000D03*
X0101000Y0016000D03*
X0101000Y0046000D03*
X0091000Y0046000D03*
X0081000Y0046000D03*
X0071000Y0046000D03*
X0061000Y0046000D03*
X0051000Y0046000D03*
X0041000Y0046000D03*
X0031000Y0046000D03*
X0021000Y0046000D03*
X0011000Y0046000D03*
X0011000Y0076000D03*
X0021000Y0076000D03*
X0031000Y0076000D03*
X0041000Y0076000D03*
X0051000Y0076000D03*
X0061000Y0076000D03*
X0071000Y0076000D03*
X0081000Y0076000D03*
X0091000Y0076000D03*
X0101000Y0076000D03*
X0101000Y0106000D03*
X0091000Y0106000D03*
X0081000Y0106000D03*
X0071000Y0106000D03*
X0061000Y0106000D03*
X0051000Y0106000D03*
X0041000Y0106000D03*
X0031000Y0106000D03*
X0021000Y0106000D03*
X0011000Y0106000D03*
X0011000Y0136000D03*
X0021000Y0136000D03*
X0031000Y0136000D03*
X0041000Y0136000D03*
X0051000Y0136000D03*
X0061000Y0136000D03*
X0071000Y0136000D03*
X0081000Y0136000D03*
X0091000Y0136000D03*
X0101000Y0136000D03*
X0101000Y0166000D03*
X0091000Y0166000D03*
X0081000Y0166000D03*
X0071000Y0166000D03*
X0061000Y0166000D03*
X0051000Y0166000D03*
X0041000Y0166000D03*
X0031000Y0166000D03*
X0021000Y0166000D03*
X0011000Y0166000D03*
X0011000Y0196000D03*
X0021000Y0196000D03*
X0031000Y0196000D03*
X0041000Y0196000D03*
X0051000Y0196000D03*
X0061000Y0196000D03*
X0071000Y0196000D03*
X0081000Y0196000D03*
X0091000Y0196000D03*
X0101000Y0196000D03*
X0101000Y0226000D03*
X0091000Y0226000D03*
X0081000Y0226000D03*
X0071000Y0226000D03*
X0061000Y0226000D03*
X0051000Y0226000D03*
X0041000Y0226000D03*
X0031000Y0226000D03*
X0021000Y0226000D03*
X0011000Y0226000D03*
X0011000Y0256000D03*
X0021000Y0256000D03*
X0031000Y0256000D03*
X0041000Y0256000D03*
X0051000Y0256000D03*
X0061000Y0256000D03*
X0071000Y0256000D03*
X0081000Y0256000D03*
X0091000Y0256000D03*
X0101000Y0256000D03*
X0101000Y0286000D03*
X0091000Y0286000D03*
X0081000Y0286000D03*
X0071000Y0286000D03*
X0061000Y0286000D03*
X0051000Y0286000D03*
X0041000Y0286000D03*
X0031000Y0286000D03*
X0021000Y0286000D03*
X0011000Y0286000D03*
M02*
