G75*
%MOIN*%
%OFA0B0*%
%FSLAX25Y25*%
%IPPOS*%
%LPD*%
%AMOC8*
5,1,8,0,0,1.08239X$1,22.5*
%
%ADD10C,0.00000*%
%ADD11OC8,0.06000*%
%ADD12C,0.02400*%
%ADD13C,0.00500*%
D10*
X0001000Y0001000D02*
X0001000Y0300961D01*
X0409701Y0300961D01*
X0409701Y0001000D01*
X0001000Y0001000D01*
D11*
X0011000Y0016000D03*
X0021000Y0016000D03*
X0031000Y0016000D03*
X0041000Y0016000D03*
X0051000Y0016000D03*
X0061000Y0016000D03*
X0071000Y0016000D03*
X0081000Y0016000D03*
X0091000Y0016000D03*
X0101000Y0016000D03*
X0101000Y0046000D03*
X0091000Y0046000D03*
X0081000Y0046000D03*
X0071000Y0046000D03*
X0061000Y0046000D03*
X0051000Y0046000D03*
X0041000Y0046000D03*
X0031000Y0046000D03*
X0021000Y0046000D03*
X0011000Y0046000D03*
X0011000Y0076000D03*
X0021000Y0076000D03*
X0031000Y0076000D03*
X0041000Y0076000D03*
X0051000Y0076000D03*
X0061000Y0076000D03*
X0071000Y0076000D03*
X0081000Y0076000D03*
X0091000Y0076000D03*
X0101000Y0076000D03*
X0101000Y0106000D03*
X0091000Y0106000D03*
X0081000Y0106000D03*
X0071000Y0106000D03*
X0061000Y0106000D03*
X0051000Y0106000D03*
X0041000Y0106000D03*
X0031000Y0106000D03*
X0021000Y0106000D03*
X0011000Y0106000D03*
X0011000Y0136000D03*
X0021000Y0136000D03*
X0031000Y0136000D03*
X0041000Y0136000D03*
X0051000Y0136000D03*
X0061000Y0136000D03*
X0071000Y0136000D03*
X0081000Y0136000D03*
X0091000Y0136000D03*
X0101000Y0136000D03*
X0101000Y0166000D03*
X0091000Y0166000D03*
X0081000Y0166000D03*
X0071000Y0166000D03*
X0061000Y0166000D03*
X0051000Y0166000D03*
X0041000Y0166000D03*
X0031000Y0166000D03*
X0021000Y0166000D03*
X0011000Y0166000D03*
X0011000Y0196000D03*
X0021000Y0196000D03*
X0031000Y0196000D03*
X0041000Y0196000D03*
X0051000Y0196000D03*
X0061000Y0196000D03*
X0071000Y0196000D03*
X0081000Y0196000D03*
X0091000Y0196000D03*
X0101000Y0196000D03*
X0101000Y0226000D03*
X0091000Y0226000D03*
X0081000Y0226000D03*
X0071000Y0226000D03*
X0061000Y0226000D03*
X0051000Y0226000D03*
X0041000Y0226000D03*
X0031000Y0226000D03*
X0021000Y0226000D03*
X0011000Y0226000D03*
X0011000Y0256000D03*
X0021000Y0256000D03*
X0031000Y0256000D03*
X0041000Y0256000D03*
X0051000Y0256000D03*
X0061000Y0256000D03*
X0071000Y0256000D03*
X0081000Y0256000D03*
X0091000Y0256000D03*
X0101000Y0256000D03*
X0101000Y0286000D03*
X0091000Y0286000D03*
X0081000Y0286000D03*
X0071000Y0286000D03*
X0061000Y0286000D03*
X0051000Y0286000D03*
X0041000Y0286000D03*
X0031000Y0286000D03*
X0021000Y0286000D03*
X0011000Y0286000D03*
D12*
X0311000Y0196000D03*
X0311000Y0186000D03*
X0311000Y0176000D03*
X0321000Y0176000D03*
X0331000Y0176000D03*
X0341000Y0176000D03*
X0341000Y0186000D03*
X0331000Y0186000D03*
X0321000Y0186000D03*
X0321000Y0196000D03*
X0331000Y0196000D03*
X0341000Y0196000D03*
X0351000Y0196000D03*
X0361000Y0196000D03*
X0361000Y0186000D03*
X0351000Y0186000D03*
X0351000Y0176000D03*
X0361000Y0176000D03*
X0371000Y0176000D03*
X0381000Y0176000D03*
X0391000Y0176000D03*
X0391000Y0186000D03*
X0381000Y0186000D03*
X0371000Y0186000D03*
X0371000Y0196000D03*
X0381000Y0196000D03*
X0391000Y0196000D03*
X0401000Y0196000D03*
X0401000Y0186000D03*
X0401000Y0176000D03*
X0401000Y0166000D03*
X0401000Y0156000D03*
X0401000Y0146000D03*
X0401000Y0136000D03*
X0391000Y0136000D03*
X0381000Y0136000D03*
X0371000Y0136000D03*
X0371000Y0146000D03*
X0381000Y0146000D03*
X0391000Y0146000D03*
X0391000Y0156000D03*
X0381000Y0156000D03*
X0371000Y0156000D03*
X0371000Y0166000D03*
X0381000Y0166000D03*
X0391000Y0166000D03*
X0361000Y0166000D03*
X0351000Y0166000D03*
X0351000Y0156000D03*
X0361000Y0156000D03*
X0361000Y0146000D03*
X0351000Y0146000D03*
X0351000Y0136000D03*
X0361000Y0136000D03*
X0361000Y0126000D03*
X0351000Y0126000D03*
X0351000Y0116000D03*
X0361000Y0116000D03*
X0361000Y0106000D03*
X0351000Y0106000D03*
X0341000Y0106000D03*
X0331000Y0106000D03*
X0321000Y0106000D03*
X0321000Y0116000D03*
X0331000Y0116000D03*
X0341000Y0116000D03*
X0341000Y0126000D03*
X0331000Y0126000D03*
X0321000Y0126000D03*
X0311000Y0126000D03*
X0311000Y0116000D03*
X0311000Y0106000D03*
X0311000Y0136000D03*
X0311000Y0146000D03*
X0311000Y0156000D03*
X0311000Y0166000D03*
X0321000Y0166000D03*
X0331000Y0166000D03*
X0341000Y0166000D03*
X0341000Y0156000D03*
X0331000Y0156000D03*
X0321000Y0156000D03*
X0321000Y0146000D03*
X0331000Y0146000D03*
X0341000Y0146000D03*
X0341000Y0136000D03*
X0331000Y0136000D03*
X0321000Y0136000D03*
X0371000Y0126000D03*
X0381000Y0126000D03*
X0391000Y0126000D03*
X0391000Y0116000D03*
X0381000Y0116000D03*
X0371000Y0116000D03*
X0371000Y0106000D03*
X0381000Y0106000D03*
X0391000Y0106000D03*
X0401000Y0106000D03*
X0401000Y0116000D03*
X0401000Y0126000D03*
D13*
X0394000Y0119000D01*
X0140000Y0119000D01*
X0110000Y0089000D01*
X0110000Y0075000D01*
X0104000Y0069000D01*
X0018000Y0069000D01*
X0011000Y0076000D01*
X0021000Y0076000D02*
X0027000Y0070000D01*
X0103500Y0070000D01*
X0109000Y0075500D01*
X0109000Y0089500D01*
X0139500Y0120000D01*
X0385000Y0120000D01*
X0391000Y0126000D01*
X0394000Y0129000D02*
X0134000Y0129000D01*
X0104000Y0099000D01*
X0018000Y0099000D01*
X0011000Y0106000D01*
X0021000Y0106000D02*
X0027000Y0100000D01*
X0103500Y0100000D01*
X0133500Y0130000D01*
X0385000Y0130000D01*
X0391000Y0136000D01*
X0394000Y0139000D02*
X0114000Y0139000D01*
X0104000Y0129000D01*
X0018000Y0129000D01*
X0011000Y0136000D01*
X0021000Y0136000D02*
X0027000Y0130000D01*
X0103500Y0130000D01*
X0113500Y0140000D01*
X0385000Y0140000D01*
X0391000Y0146000D01*
X0394000Y0139000D02*
X0401000Y0146000D01*
X0401000Y0136000D02*
X0394000Y0129000D01*
X0381000Y0126000D02*
X0376000Y0121000D01*
X0138000Y0121000D01*
X0107500Y0090500D01*
X0107500Y0075500D01*
X0103000Y0071000D01*
X0036000Y0071000D01*
X0031000Y0076000D01*
X0041000Y0076000D02*
X0045000Y0072000D01*
X0102500Y0072000D01*
X0106000Y0075500D01*
X0106000Y0091000D01*
X0137000Y0122000D01*
X0367000Y0122000D01*
X0371000Y0126000D01*
X0376000Y0131000D02*
X0133000Y0131000D01*
X0103000Y0101000D01*
X0036000Y0101000D01*
X0031000Y0106000D01*
X0041000Y0106000D02*
X0045000Y0102000D01*
X0102500Y0102000D01*
X0132500Y0132000D01*
X0367000Y0132000D01*
X0371000Y0136000D01*
X0376000Y0141000D02*
X0113000Y0141000D01*
X0103000Y0131000D01*
X0036000Y0131000D01*
X0031000Y0136000D01*
X0041000Y0136000D02*
X0045000Y0132000D01*
X0102500Y0132000D01*
X0112500Y0142000D01*
X0367000Y0142000D01*
X0371000Y0146000D01*
X0376000Y0141000D02*
X0381000Y0146000D01*
X0381000Y0136000D02*
X0376000Y0131000D01*
X0361000Y0126000D02*
X0358000Y0123000D01*
X0133000Y0123000D01*
X0101000Y0091000D01*
X0101000Y0081000D01*
X0056000Y0081000D01*
X0051000Y0076000D01*
X0056000Y0051000D02*
X0051000Y0046000D01*
X0056000Y0051000D02*
X0106000Y0051000D01*
X0111000Y0056000D01*
X0111000Y0088500D01*
X0135500Y0113000D01*
X0358000Y0113000D01*
X0361000Y0116000D01*
X0367000Y0112000D02*
X0136000Y0112000D01*
X0112000Y0088000D01*
X0112000Y0051500D01*
X0102500Y0042000D01*
X0045000Y0042000D01*
X0041000Y0046000D01*
X0036000Y0041000D02*
X0031000Y0046000D01*
X0036000Y0041000D02*
X0103000Y0041000D01*
X0113000Y0051000D01*
X0113000Y0087000D01*
X0137000Y0111000D01*
X0376000Y0111000D01*
X0381000Y0116000D01*
X0385000Y0110000D02*
X0137500Y0110000D01*
X0114000Y0086500D01*
X0114000Y0050500D01*
X0103500Y0040000D01*
X0027000Y0040000D01*
X0021000Y0046000D01*
X0018000Y0039000D02*
X0011000Y0046000D01*
X0018000Y0039000D02*
X0104000Y0039000D01*
X0115000Y0050000D01*
X0115000Y0086000D01*
X0138000Y0109000D01*
X0394000Y0109000D01*
X0401000Y0116000D01*
X0401000Y0106000D02*
X0394000Y0099000D01*
X0135500Y0099000D01*
X0120000Y0083500D01*
X0120000Y0025000D01*
X0104000Y0009000D01*
X0018000Y0009000D01*
X0011000Y0016000D01*
X0021000Y0016000D02*
X0027000Y0010000D01*
X0103500Y0010000D01*
X0119000Y0025500D01*
X0119000Y0084000D01*
X0135000Y0100000D01*
X0385000Y0100000D01*
X0391000Y0106000D01*
X0385000Y0110000D02*
X0391000Y0116000D01*
X0381000Y0106000D02*
X0376000Y0101000D01*
X0134500Y0101000D01*
X0118000Y0084500D01*
X0118000Y0026000D01*
X0103000Y0011000D01*
X0036000Y0011000D01*
X0031000Y0016000D01*
X0041000Y0016000D02*
X0045000Y0012000D01*
X0102500Y0012000D01*
X0117000Y0026500D01*
X0117000Y0085000D01*
X0134000Y0102000D01*
X0367000Y0102000D01*
X0371000Y0106000D01*
X0367000Y0112000D02*
X0371000Y0116000D01*
X0361000Y0106000D02*
X0358000Y0103000D01*
X0133500Y0103000D01*
X0116000Y0085500D01*
X0116000Y0031000D01*
X0106000Y0021000D01*
X0056000Y0021000D01*
X0051000Y0016000D01*
X0051000Y0106000D02*
X0056000Y0111000D01*
X0106000Y0111000D01*
X0128000Y0133000D01*
X0358000Y0133000D01*
X0361000Y0136000D01*
X0358000Y0143000D02*
X0058000Y0143000D01*
X0051000Y0136000D01*
X0058000Y0159000D02*
X0051000Y0166000D01*
X0045000Y0170000D02*
X0041000Y0166000D01*
X0045000Y0170000D02*
X0102500Y0170000D01*
X0112500Y0160000D01*
X0367000Y0160000D01*
X0371000Y0156000D01*
X0376000Y0161000D02*
X0113000Y0161000D01*
X0103000Y0171000D01*
X0036000Y0171000D01*
X0031000Y0166000D01*
X0027000Y0172000D02*
X0021000Y0166000D01*
X0018000Y0173000D02*
X0011000Y0166000D01*
X0018000Y0173000D02*
X0104000Y0173000D01*
X0114000Y0163000D01*
X0394000Y0163000D01*
X0401000Y0156000D01*
X0401000Y0166000D02*
X0394000Y0173000D01*
X0134000Y0173000D01*
X0104000Y0203000D01*
X0018000Y0203000D01*
X0011000Y0196000D01*
X0021000Y0196000D02*
X0027000Y0202000D01*
X0103500Y0202000D01*
X0133500Y0172000D01*
X0385000Y0172000D01*
X0391000Y0166000D01*
X0385000Y0162000D02*
X0113500Y0162000D01*
X0103500Y0172000D01*
X0027000Y0172000D01*
X0058000Y0159000D02*
X0358000Y0159000D01*
X0361000Y0156000D01*
X0361000Y0146000D02*
X0358000Y0143000D01*
X0376000Y0161000D02*
X0381000Y0156000D01*
X0385000Y0162000D02*
X0391000Y0156000D01*
X0381000Y0166000D02*
X0376000Y0171000D01*
X0133000Y0171000D01*
X0103000Y0201000D01*
X0036000Y0201000D01*
X0031000Y0196000D01*
X0041000Y0196000D02*
X0045000Y0200000D01*
X0102500Y0200000D01*
X0132500Y0170000D01*
X0367000Y0170000D01*
X0371000Y0166000D01*
X0361000Y0166000D02*
X0358000Y0169000D01*
X0128000Y0169000D01*
X0106000Y0191000D01*
X0056000Y0191000D01*
X0051000Y0196000D01*
X0056000Y0221000D02*
X0051000Y0226000D01*
X0056000Y0221000D02*
X0101000Y0221000D01*
X0101000Y0211000D01*
X0133000Y0179000D01*
X0358000Y0179000D01*
X0361000Y0176000D01*
X0367000Y0180000D02*
X0137000Y0180000D01*
X0106000Y0211000D01*
X0106000Y0226500D01*
X0102500Y0230000D01*
X0045000Y0230000D01*
X0041000Y0226000D01*
X0036500Y0231500D02*
X0031000Y0226000D01*
X0027500Y0232500D02*
X0021000Y0226000D01*
X0018500Y0233500D02*
X0011000Y0226000D01*
X0018500Y0233500D02*
X0104000Y0233500D01*
X0109000Y0228500D01*
X0109000Y0212500D01*
X0138500Y0183000D01*
X0394000Y0183000D01*
X0401000Y0176000D01*
X0401000Y0186000D02*
X0394000Y0193000D01*
X0136000Y0193000D01*
X0114000Y0215000D01*
X0114000Y0253000D01*
X0104000Y0263000D01*
X0018000Y0263000D01*
X0011000Y0256000D01*
X0021000Y0256000D02*
X0027000Y0262000D01*
X0103500Y0262000D01*
X0113000Y0252500D01*
X0113000Y0214500D01*
X0135500Y0192000D01*
X0385000Y0192000D01*
X0391000Y0186000D01*
X0385000Y0182000D02*
X0138000Y0182000D01*
X0108000Y0212000D01*
X0108000Y0228000D01*
X0103500Y0232500D01*
X0027500Y0232500D01*
X0036500Y0231500D02*
X0103000Y0231500D01*
X0107000Y0227500D01*
X0107000Y0211500D01*
X0137500Y0181000D01*
X0376000Y0181000D01*
X0381000Y0176000D01*
X0385000Y0182000D02*
X0391000Y0176000D01*
X0381000Y0186000D02*
X0376000Y0191000D01*
X0135000Y0191000D01*
X0112000Y0214000D01*
X0112000Y0252000D01*
X0103000Y0261000D01*
X0036000Y0261000D01*
X0031000Y0256000D01*
X0041000Y0256000D02*
X0045000Y0260000D01*
X0102500Y0260000D01*
X0111000Y0251500D01*
X0111000Y0213500D01*
X0134500Y0190000D01*
X0367000Y0190000D01*
X0371000Y0186000D01*
X0367000Y0180000D02*
X0371000Y0176000D01*
X0361000Y0186000D02*
X0358000Y0189000D01*
X0134000Y0189000D01*
X0110000Y0213000D01*
X0110000Y0247000D01*
X0106000Y0251000D01*
X0056000Y0251000D01*
X0051000Y0256000D01*
X0056000Y0281000D02*
X0051000Y0286000D01*
X0056000Y0281000D02*
X0106000Y0281000D01*
X0115000Y0272000D01*
X0115000Y0215500D01*
X0131500Y0199000D01*
X0358000Y0199000D01*
X0361000Y0196000D01*
X0367000Y0200000D02*
X0132000Y0200000D01*
X0116000Y0216000D01*
X0116000Y0276500D01*
X0102500Y0290000D01*
X0045000Y0290000D01*
X0041000Y0286000D01*
X0036000Y0291000D02*
X0031000Y0286000D01*
X0036000Y0291000D02*
X0103000Y0291000D01*
X0117000Y0277000D01*
X0117000Y0216500D01*
X0132500Y0201000D01*
X0376000Y0201000D01*
X0381000Y0196000D01*
X0385000Y0202000D02*
X0133000Y0202000D01*
X0118000Y0217000D01*
X0118000Y0277500D01*
X0103500Y0292000D01*
X0027000Y0292000D01*
X0021000Y0286000D01*
X0018000Y0293000D02*
X0011000Y0286000D01*
X0018000Y0293000D02*
X0104000Y0293000D01*
X0119000Y0278000D01*
X0119000Y0217500D01*
X0133500Y0203000D01*
X0394000Y0203000D01*
X0401000Y0196000D01*
X0391000Y0196000D02*
X0385000Y0202000D01*
X0371000Y0196000D02*
X0367000Y0200000D01*
M02*
