%
M48
M72
T01C0.01200
T02C0.04000
%
T01
X311000Y106000
X311000Y116000
X311000Y126000
X321000Y126000
X331000Y126000
X341000Y126000
X341000Y116000
X331000Y116000
X321000Y116000
X321000Y106000
X331000Y106000
X341000Y106000
X351000Y106000
X361000Y106000
X361000Y116000
X351000Y116000
X351000Y126000
X361000Y126000
X371000Y126000
X381000Y126000
X391000Y126000
X391000Y116000
X381000Y116000
X371000Y116000
X371000Y106000
X381000Y106000
X391000Y106000
X401000Y106000
X401000Y116000
X401000Y126000
X401000Y136000
X401000Y146000
X401000Y156000
X401000Y166000
X391000Y166000
X381000Y166000
X371000Y166000
X371000Y156000
X381000Y156000
X391000Y156000
X391000Y146000
X381000Y146000
X371000Y146000
X371000Y136000
X381000Y136000
X391000Y136000
X361000Y136000
X351000Y136000
X351000Y146000
X361000Y146000
X361000Y156000
X351000Y156000
X351000Y166000
X361000Y166000
X361000Y176000
X351000Y176000
X351000Y186000
X361000Y186000
X361000Y196000
X351000Y196000
X341000Y196000
X331000Y196000
X321000Y196000
X321000Y186000
X331000Y186000
X341000Y186000
X341000Y176000
X331000Y176000
X321000Y176000
X311000Y176000
X311000Y186000
X311000Y196000
X311000Y166000
X311000Y156000
X311000Y146000
X311000Y136000
X321000Y136000
X331000Y136000
X341000Y136000
X341000Y146000
X331000Y146000
X321000Y146000
X321000Y156000
X331000Y156000
X341000Y156000
X341000Y166000
X331000Y166000
X321000Y166000
X371000Y176000
X381000Y176000
X391000Y176000
X391000Y186000
X381000Y186000
X371000Y186000
X371000Y196000
X381000Y196000
X391000Y196000
X401000Y196000
X401000Y186000
X401000Y176000
T02
X11000Y286000
X21000Y286000
X31000Y286000
X41000Y286000
X51000Y286000
X61000Y286000
X71000Y286000
X81000Y286000
X91000Y286000
X101000Y286000
X101000Y256000
X91000Y256000
X81000Y256000
X71000Y256000
X61000Y256000
X51000Y256000
X41000Y256000
X31000Y256000
X21000Y256000
X11000Y256000
X11000Y226000
X21000Y226000
X31000Y226000
X41000Y226000
X51000Y226000
X61000Y226000
X71000Y226000
X81000Y226000
X91000Y226000
X101000Y226000
X101000Y196000
X91000Y196000
X81000Y196000
X71000Y196000
X61000Y196000
X51000Y196000
X41000Y196000
X31000Y196000
X21000Y196000
X11000Y196000
X11000Y166000
X21000Y166000
X31000Y166000
X41000Y166000
X51000Y166000
X61000Y166000
X71000Y166000
X81000Y166000
X91000Y166000
X101000Y166000
X101000Y136000
X91000Y136000
X81000Y136000
X71000Y136000
X61000Y136000
X51000Y136000
X41000Y136000
X31000Y136000
X21000Y136000
X11000Y136000
X11000Y106000
X21000Y106000
X31000Y106000
X41000Y106000
X51000Y106000
X61000Y106000
X71000Y106000
X81000Y106000
X91000Y106000
X101000Y106000
X101000Y76000
X91000Y76000
X81000Y76000
X71000Y76000
X61000Y76000
X51000Y76000
X41000Y76000
X31000Y76000
X21000Y76000
X11000Y76000
X11000Y46000
X21000Y46000
X31000Y46000
X41000Y46000
X51000Y46000
X61000Y46000
X71000Y46000
X81000Y46000
X91000Y46000
X101000Y46000
X101000Y16000
X91000Y16000
X81000Y16000
X71000Y16000
X61000Y16000
X51000Y16000
X41000Y16000
X31000Y16000
X21000Y16000
X11000Y16000
M30
